<?xml version="1.0" encoding="UTF-8"?>
<svg version="1.1" viewBox="0 0 1600 1600" width="1280" height="1280" xmlns="http://www.w3.org/2000/svg">
<path transform="translate(0)" d="m0 0h1600v1600h-1600z" fill="#04131A"/>
<path transform="translate(0)" d="m0 0h1600v1600h-1600zm778 38-46 4-37 5-38 6-36 8-21 6-28 7-10 4-6 4h-4l-2-2-1 3-5 1-10 4-21 8-21 9-18 8-7 5-9 4-19 10-22 12-17 10-14 10-12 8-14 10-16 12-15 11-7 3-3 3v2l-4 2-3 4-3 1-3 5-3 2v3h-2l-1-2-15 16-7 7-8 7-23 23-5 4-1 3 1 1-4 2-1 5-5 2-2 4-4 1-9 13-26 34-12 17-10 13-10 15-8 14-12 20-8 13-9 19-6 12-9 17-9 24-11 24-10 30-2 13-1 8-4-3-2 13-1 9-1 22-3 14-4 8-5 18-5 41-4 49-1 9 2 1 9-3 6-9 10-16 7-10 29-44 14-22 15-24 14-21 9-20 13-36 13-29 8-18 12-23 12-22 10-17 11-17 10-15 11-16 10-14 11-14 9-10 9-11 12-14 15-16 28-28 11-9 10-9 14-11 12-10 17-12 20-14 22-14 21-12 28-15 30-14 19-8 42-15 36-10 32-8 44-8 35-4 32-2h56l30 2 36 4 36 7 25 6 35 10 26 9 34 13 30 13 17 8 18 10 22 12 23 14 21 14 18 13 14 11 16 13 11 10 8 7 12 11 26 26 7 8 12 14 11 13 10 13 15 20 20 30 16 26 16 29 14 28 10 23 11 28 13 38 9 34 8 32 6 39 2 18 2 50v39l-2 46-8 59-9 35-7 27-14 43-12 30-13 29-12 24-13 23-8 14-22 33-11 16-10 13-24 28-9 11-11 12-21 21-8 7-13 12-11 9-10 9-9 7-21 16-20 14-19 12-26 15-26 14-19 10-37 18-19 7-4 1h-15v-2l5-2 28-13 25-14 19-13 14-10 19-14 13-10 10-9 8-7 15-14 10-9 9-9 8-7 22-22 9-11 12-14 11-10 10-8 9-10 10-15 10-16 13-20 15-24 12-19 14-23 12-20 13-23 2-4v-12l-6-20-6-17-12-36-13-37-3-10v-14l12-42 7-23 5-21 5-10 9-7 23-13 22-11 6-5 1-3v-48l-4-46-5-40-9-51-7-30-6-10-11-12-15-14-78-78-11-14-14-21 1-4 4-6 6-19-1-6-6-9-14-15-12-12-7-8-17-16-11-10-11-9-13-11-18-13-19-13-24-15-17-10-20-11-20-9-34-11-26-6-17-2h-28l6 7 12 19 29 43 11 17 6 10 1 4v6l-15 2-28 10-18 5-12-2-24-7-24-8-31-9-36-12-30-9-25-7-6-5-10-17-9-17v-3l9-4 32-8 23-7 47-10 28-8 12-3 4-10v-3l-2-1-27-1-44-5-14-1h-65l-32 3-23 3-28 6-44 11-30 11-18 6-24 11-22 10-18 10-13 9-9 8-14 9-18 10-12 9-11 9-12 9-14 9-11 9-28 24-11 11-8 7-18 18-7 8-9 10-9 11-14 17-22 33-8 13-12 23-8 19-12 36-5 20-5 19-4 18-7 16-9 16-11 17-13 21-24 40-13 19-21 31-12 17-11 17-12 18-10 13-12 15-14 21-1 2v13l7 46 8 37 5 25 2 3 4-1 8-7 7-7 15-20 14-18 12-17 10-14 14-19 13-18 16-23 17-26 7-11 10-13 4-2 2 4 1 1v11l-1 7v9l3 12v14l-21 31-14 20-12 17-9 13-11 14-14 19-14 20-14 19-11 13-10 13-8 10v6l7 14 9 27 4 2 8-7 9-10 12-14 12-16 42-57 10-13 26-38 9-11 6-7 4-1h17l10 4 5 4 5 9 1 4v15l-3 8-6 9-18 22-8 10-11 14-11 13-13 17-18 22-12 14-12 13-7 8-12 14-11 12-8 10-3 4 1 7 10 14 24 40 11 16 4 2 12-6 27-16 16-10 23-16 17-12 18-13 19-14 16-13 14-11 15-13 11-9 15-14 16-16 7-8 15-15 7-8 9-9 7-8 12-12 7-8 16-17 9-10 12-14 11-12 8-6 3-1 12-1 47-1h43l-3 5-8 7v2h-2v2h-2l-7 8-44 44-7 8-25 25-8 7-15 14-8 7-10 10-8 7-10 10-8 7-11 10-11 9-10 9-11 9-10 9-14 11-13 11-17 13-21 16-19 14-18 13-17 12-13 9-19 12-23 14-15 10-2 2 1 4 28 28 5 7 2 1h7l34-13 23-10 17-8 22-12 28-14 22-12 21-13 24-15 20-14 12-8 16-11 17-12 17-13 16-13 11-9 14-12 17-13 10-8 10-9 8-7 10-9 8-7 12-11 9-9 8-7 13-12 14-14 16-8 10-1 9 2 9 5 5 4 7 11 3 8v12l-4 11-7 9-8 7-10 9-9 9-8 7-12 11-11 9-28 24-15 13-13 10-16 13-11 9-17 13-16 12-18 14-19 13-23 16-44 29-11 7-28 17-21 12-32 17-37 18-18 10 5 5 28 21 3 1h15l33-5 49-8 39-10 36-10 28-10 28-11 33-14 26-12 16-8 25-13 24-14 22-13 42-26 48-32 17-13 7-5 4-11 3-24 5-6 32-21 23-15 44-29 16-11 17-12 19-13 12-9 9-6 7-1 30 9 45 11 2 1v6l-14 10-19 14-17 13-15 13-17 13-21 16-12 9-16 13-19 14-16 11-19 13-17 12-15 10-23 16-24 15-26 16-25 15-24 14-27 15-28 15-24 12-41 18-36 15-47 16-41 12-43 10-42 8-28 5-7 3-4 2v2l11 4 15 9 3 1h33l23-2 66-10 27-4 40-9 43-11 38-12 49-17 25-10 22-9 29-13 26-12 30-15 19-10 30-16 24-14 28-17 19-12 16-10 22-14 16-11 43-30 15-12 11-7 9-3h10l10 4 7 6 5 10 2 6v14l-6 9-2 4-4 2-12 9-36 25-18 13-20 13-42 26-19 12-24 14-26 15-27 15-23 12-42 21-33 15-37 15-26 10-31 11-36 12-40 14-13 5-22 5-43 7-30 3-16 1-1 2 4 10 5 3 17 4 12 5 20 5 14 5 26 6 12 3 22 3 13 3 62 8 10 1h96l36-3 26-4 23-3 14-3h30l-3-2-13-2 31-7h3l2 3 2-3h7l7-6 3-1h15l1-2h-5l1-1 5-1v-2l5 1 1-3 5-2 4 1v4h2v-6h11l2-2v-2l2 2 3-5 8-2 4 2 1-3 4 1 1-6 9-3v5l2-1v-4h8l5-2 1-3 12-4 9-6 7-4h3l2 2 6-1-3-2h-3l3-4 23-11 10-6 4-4 1 4 9-6 11-8 12-6-2-1v-2l10-2 10-12 1 2 5-1 2-2-3-2 9-2 5-6 2-1v-2l4-2 11-10 7-5 1-2 7-2 1-4 7-3 28-28 8-7 10-11 7-8 10-9 9-10 15-14 2-5 4-1 1-6 4-1v-4l10-12 8-10 7-9 1-2 6-2v-2l-5 1 8-11 7-7 2-8 5-6 5-5 6-10 5-13 3-2v-3l4-1 3-10 5-12 1-5h2l2 5 2-4 1-8 5-10 9-19 7-11 2-5v-4h-2v-2l3 1 3-7 1-10 1-5h2l5-7 2-6 1-16 2-2 3-2 1-7v-4l1-9 2 5h1v-15h3l1 8h1v-19l6-19 2-5 4-31 1-17h2l1 10 2-1 1-5v-33l2-35 1-7 1 18 2 2 1-49v-24l-1-43-2-21-3-16-1-12v-53h-1l-3 30h-1l-5-40v-9l-3-1-1-5-5-24-3-15-4-2-4-15h2l-1-5-5-6-3-18-3-7-4-2-2-7-1-14h-5l-3-7h3v-2l-4-2 3 1-1-4-5-7-2-5h-3v-7l-26-52-14-21-10-17-4-5-1-10-2 4h-2l-7-10-9-11-11-18-9-13-10-8-3-5-1-6-3 1-2-6-5-5-9-10-8-8-7-8-8-8-7-8-13-12-8-7-11-10-17-13-5-3-5-5-14-13-14-10-11-7-11-9-13-8-12-7-6-4-12-3-2-2v-5l-7-1-8-5-33-17-16-8-19-8-14-6-23-9-14-3-3-3-24-7-6-3-1-1h-11v-2h-2v2l-9-2-8-4-18-2 3-3-4-2v4l-21-6-16-4-15-1-30-4-43-4z" fill="#FCFCFC"/>
<path transform="translate(778,125)" d="m0 0h56l30 2 36 4 36 7 25 6 35 10 26 9 34 13 30 13 17 8 18 10 22 12 23 14 21 14 18 13 14 11 16 13 11 10 8 7 12 11 27 27 7 8 12 14 11 13 10 13 15 20 20 30 16 26 16 29 14 28 10 23 11 28 13 38 9 34 8 32 6 39 2 18 2 50v39l-2 46-8 59-9 35-7 27-14 43-12 30-13 29-12 24-13 23-8 14-22 33-11 16-10 13-24 28-9 11-11 12-22 22-8 7-13 12-11 9-10 9-9 7-21 16-20 14-19 12-26 15-26 14-19 10-37 18-19 7-4 1h-13l-2-1v-2l15-8 20-9 23-13 19-13 14-10 19-14 13-10 10-9 8-7 15-14 10-9 9-9 8-7 21-21 9-11 12-14 12-11 10-8 8-9 10-15 10-16 13-20 15-24 12-19 14-23 12-20 13-23 2-4v-12l-6-20-6-17-12-36-13-37-3-10v-14l12-42 7-23 5-21 5-10 7-6 24-14 24-12 5-4 1-3v-48l-4-46-5-40-9-51-7-30-6-10-11-12-13-12-80-80-11-14-14-21 1-4 4-6 6-19-1-6-6-9-14-15-12-12-7-8-16-15-11-10-11-9-13-11-18-13-19-13-24-15-17-10-20-11-20-9-34-11-26-6-17-2h-27l5 4 12 20 8 11 29 44 10 16 1 4-1 6-9 2-12 3-22 8-18 5-12-2-24-7-24-8-31-9-36-12-30-9-25-7-7-6-10-17-9-17 1-4 9-4 32-8 23-7 47-10 28-8 12-3 4-12-29-1-44-5-14-1h-65l-32 3-23 3-28 6-44 11-30 11-18 6-24 11-22 10-18 10-13 9-9 8-14 9-18 10-12 9-11 9-12 9-14 9-11 9-28 24-11 11-8 7-17 17-7 8-9 10-9 11-14 17-22 33-8 13-12 23-8 19-12 36-5 20-5 19-4 18-7 16-9 16-11 17-13 21-24 40-13 19-21 31-12 17-11 17-12 18-10 13-12 15-14 21-1 2v13l7 46 8 37 5 25 1 2 4-1 8-7 10-11 24-32 11-15 12-17 14-19 13-18 16-23 17-26 7-11 10-13 2-2h3l4 5v11l-1 7v9l3 12v14l-21 31-14 20-12 17-9 13-11 14-14 19-14 20-14 19-11 13-10 13-8 10v6l7 14 9 27 3 1 8-7 7-8 13-15 12-16 42-57 10-13 26-38 9-11 7-8 4-1h17l10 4 6 5 5 9 1 4v15l-3 8-6 9-18 22-8 10-11 14-11 13-13 17-18 22-12 14-12 13-7 8-12 14-11 12-8 10-3 4 1 7 10 14 24 40 11 16 3 1 12-6 27-16 16-10 23-16 17-12 18-13 19-14 16-13 14-11 15-13 11-9 15-14 15-15 7-8 15-15 7-8 9-9 7-8 12-12 7-8 16-17 9-10 12-14 11-12 7-6 5-2 12-1 47-1h43l1 2-7 8-3 3h-2v2h-2v2h-2l-2 4-48 48-7 8-26 26-8 7-15 14-8 7-10 10-8 7-10 10-8 7-11 10-11 9-10 9-11 9-10 9-14 11-13 11-17 13-21 16-19 14-18 13-17 12-13 9-19 12-23 14-15 10-1 4 29 29 4 6 2 1h7l34-13 23-10 17-8 22-12 28-14 22-12 21-13 24-15 20-14 12-8 16-11 17-12 17-13 16-13 11-9 14-12 17-13 10-8 10-9 8-7 10-9 8-7 12-11 9-9 8-7 13-12 14-14 16-8 10-1 9 2 9 5 6 5 7 11 3 8v12l-4 11-7 9-10 9-8 7-10 10-8 7-12 11-11 9-28 24-15 13-13 10-16 13-11 9-17 13-16 12-18 14-19 13-23 16-44 29-11 7-28 17-21 12-32 17-37 18-16 9v2l11 8 13 10 7 5 3 1h15l33-5 49-8 39-10 36-10 28-10 28-11 33-14 26-12 16-8 25-13 24-14 22-13 42-26 48-32 17-13 6-4 4-11 3-24 6-7 32-21 23-15 44-29 16-11 17-12 19-13 12-9 9-6 7-1 30 9 45 11 3 2v6l-16 12-18 13-17 13-15 13-17 13-21 16-12 9-16 13-19 14-16 11-19 13-17 12-15 10-23 16-24 15-26 16-25 15-24 14-27 15-28 15-24 12-41 18-36 15-47 16-41 12-43 10-42 8-28 5-7 3-4 1v2l9 2 14 8 6 3h33l23-2 13-1v1l-5 1 2 2 9 3 2 5 3 4h-4l-3-4 2 4 6 11 5 2v10l-3-2 1 8-13-1-14-5-10-5-27-6-16-3-14-7-10-8-8-8-3-2v-2l-5-2-6-4-23-11-17-9-18-12-16-10-25-12v-2l-4-1-12-8-8-7v-2h-2v-2h-2l-5-6v-2h-2l-11-14-10-10v-2h-2l-7-8-8-8-7-8-3-5-8-10-7-7-14-16-7-11-6-17-5-15-8-16-8-12-9-14-14-25-13-18-8-14-11-26-9-20-12-36-11-28-5-14-1-5-1-51-4-10-13-21-1-5v-12l5-24 1-8v-34l-2-20-4-29-1-9 2-4 8-1 2-20 2-14h1v15l-2 13v5l10-3 11-18 9-13 29-44 16-25 15-24 14-21 9-20 13-36 13-29 8-18 12-23 12-22 10-17 11-17 10-15 11-16 10-14 11-14 9-10 9-11 12-14 15-16 29-29 11-9 10-9 14-11 12-10 17-12 20-14 22-14 21-12 28-15 30-14 19-8 42-15 36-10 32-8 44-8 35-4z" fill="#FCFCFC"/>
<path transform="translate(778,38)" d="m0 0h62l52 5 21 3 15 1 23 6 14 4 1-4 3 3-3 2 18 2 11 5 6 1v-2h2v2h11l5 3 19 6 8 3 2 2 16 4 31 12 13 6 15 6 19 10 29 15 4 3 7 1v5l5 3 10 2 8 6 14 8 11 7 8 7 11 7 11 8 10 9 11 9 4 4 14 10 12 11 8 7 11 10 8 7 29 31 9 10 5 5 1 5 3-1 2 7 2 4 11 9 8 12 14 22 7 8 6 9h2l2-4 1 10 6 8 11 19 12 18 25 50v7l4 1 3 7 4 5-1 3 2 1v2h-3l3 7h5l1 14 2 7 4 3 3 6 3 18 6 8v3h-2l4 15 4 2 5 25 3 14 1 5 3 1v9l4 35 1 5h1l3-30h1v53l2 18 3 17 1 14 1 43v24l-1 49-2-2-1-18-1 7-2 35v33l-2 6h-1l-1-10h-2l-1 17-4 31-5 14-3 10v19h-1l-1-8h-3v15l-2-2-1-3-1 9v4l-1 7-4 2-1 2-1 16-4 9-3 4h-2l-2 11-1 8-3 3-2-1v2h2l-1 6-6 11-10 19-5 12-1 3-2 10-3-3v-2h-2l-3 11-5 11-1 5-4 2v2l-4 4-4 11-6 10-5 5-5 6-2 8-9 9-6 9 5-1v2l-6 2-7 10-8 9-7 9-5 6v4h-3l-1 6-4 1-3 6-8 8-8 7-14 15-8 7-12 14-17 16-20 20-6 2-1 4-7 2-1 2-8 6-12 11h-2v2l-7 7-9 2 3 3-4 2h-3l-1-2-10 12-10 2v2l2 1-17 9-10 8-5 3-1-4-8 7-26 13-5 3-1 2 6 1v1l-7 1-1-2-5 1-9 6-10 5-7 2-1 3-5 2h-8l-1 5h-1v-5l-9 3-1 6-4-1-1 3-5-2-8 3-3 4-1-2v3l-2 1h-11v6l-2-1-1-4-5 1-3 2-1 2-5-1-1 3h-5l3 1 2 1-1 1h-15l-6 3-4 4h-8l-2 3-1-3-13 2-21 5 16 3v1h-30l-14 3-59 8-26 2h-96l-65-8-17-3-8-2-22-3-27-7-8-2-19-6-16-4-12-5-17-4-3-3-3-10 1-1 38-3 40-6 29-6 9-1 2 1h45l38-4 10-1 59-3 49-5 42-6 60-12 44-14 15-3h5v-2l18-6 34-16 26-13 43-24 20-12 19-13 19-14 13-10 11-9 10-9 11-9 12-11 15-14 20-20 9-11 12-14 9-11 8-9 13-18 24-36 8-13 14-25 14-27 12-26 15-38 13-40 7-27 9-35 8-59 2-46v-39l-2-50-5-39-5-27-11-42-7-24-14-40-9-21-11-25-14-28-13-23-14-23-20-30-14-19-11-14-11-13-9-11-11-12-7-8-28-28-8-7-11-10-11-9-15-12-19-14-17-12-21-13-24-14-43-23-21-9-27-11-36-13-26-8-33-9-40-8-22-3-32-3-18-1h-56l-42 3-31 4-43 8-42 11-30 9-41 15-49 23-22 12-14 8-24 15-23 16-18 13-22 18-14 12-11 9-36 36-7 8-9 10-9 11-12 14-14 18-8 12-16 23-10 16-8 13-16 28-20 40-14 32-10 27-10 25-6 11-16 24-15 24-16 25-38 57-6 10-6 3-5 1-1-1 1-9 5-59 4-31 6-21 4-8 2-11 1-22 2-19 2-3 3 3 2-13 2-12 9-26 12-26 9-24 12-23 7-15 8-15 13-21 16-27 12-16 11-15 10-14 14-18 6-8 10-14 4-1 2-4 4-1 1-5 4-2-1-2 4-5 8-7 6-5 7-8 10-10 8-7 10-10 6-7 1 2h2l1-4 4-4 1-2 4-2 4-5h2l2-4 2-2 7-3 14-10 13-10 17-12 22-15 14-9 22-12 26-14 10-5 10-6 26-11 24-10 15-5 4-2h2l2-3 1 2 5-1 12-6 26-7 23-6 25-6 31-6 49-7 41-4z" fill="#041319"/>
<path transform="translate(1039,328)" d="m0 0h8l10 3 35 18 51 25 19 10 26 13 18 10 21 11 12 9 8 9 14 23 4 7v37l-1 45-4 79v12l4 13 8 20 12 25 12 26 16 34 15 33 7 16v8l-7 26-8 26-11 38-6 11-12 10-12 9-13 10-18 13-13 10-19 14-14 10-19 14-18 14-16 12-9 6-4 1h-7l-29-7-23-7-43-10-2-2-1-5-2-32-2-45-3-37-3-32-3-9-9-8-28-17-17-10-74-45-13-8-15-9-3-7-4-50-8-88-1-19 2-7 7-6 17-12 22-15 15-11 23-16 16-11 34-23 13-10 2-3v-10l-12-50-12-55-2-12 11-4 30-9 24-8z" fill="#FCFCFC"/>
<path transform="translate(46,736)" d="m0 0h1v15l-2 13v5l11-3 5 1 9 2 15 8 6 8v3h2l1 12-15 30h2l-2 4-12 15-14 21-1 2v13l7 46 8 37 5 25 1 2 4-1 8-7 10-11 24-32 11-15 12-17 14-19 13-18 16-23 17-26 7-11 10-13 2-2h3l4 5v11l-1 7v9l3 12v14l-21 31-14 20-12 17-9 13-11 14-14 19-14 20-14 19-11 13-10 13-8 10v6l7 14 9 27 3 1 8-7 7-8 13-15 12-16 42-57 10-13 26-38 9-11 7-8 4-1h17l10 4 6 5 5 9 1 4v15l-3 8-6 9-18 22-8 10-11 14-11 13-13 17-18 22-12 14-12 13-7 8-12 14-11 12-8 10-3 4 1 7 10 14 24 40 11 16 3 1 12-6 27-16 16-10 23-16 17-12 18-13 19-14 16-13 14-11 15-13 11-9 15-14 15-15 7-8 15-15 7-8 9-9 7-8 12-12 7-8 16-17 9-10 12-14 11-12 7-6 5-2 12-1 47-1h43l1 2-7 8-3 3h-2v2h-2v2h-2l-2 4-48 48-7 8-26 26-8 7-15 14-8 7-10 10-8 7-10 10-8 7-11 10-11 9-10 9-11 9-10 9-14 11-13 11-17 13-21 16-19 14-18 13-17 12-13 9-19 12-23 14-15 10-1 4 29 29 4 6 2 1h7l34-13 23-10 17-8 22-12 28-14 22-12 21-13 24-15 20-14 12-8 16-11 17-12 17-13 16-13 11-9 14-12 17-13 10-8 10-9 8-7 10-9 8-7 12-11 9-9 8-7 13-12 14-14 16-8 10-1 9 2 9 5 6 5 7 11 3 8v12l-4 11-7 9-10 9-8 7-10 10-8 7-12 11-11 9-28 24-15 13-13 10-16 13-11 9-17 13-16 12-18 14-19 13-23 16-44 29-11 7-28 17-21 12-32 17-37 18-16 9v2l11 8 13 10 7 5 3 1h15l33-5 49-8 39-10 36-10 28-10 28-11 33-14 26-12 16-8 25-13 24-14 22-13 42-26 48-32 17-13 6-4 4-11 3-24 6-7 32-21 23-15 44-29 16-11 17-12 19-13 12-9 9-6 7-1 30 9 45 11 3 2v6l-16 12-18 13-17 13-15 13-17 13-21 16-12 9-16 13-19 14-16 11-19 13-17 12-15 10-23 16-24 15-26 16-25 15-24 14-27 15-28 15-24 12-41 18-36 15-47 16-41 12-43 10-42 8-28 5-7 3-4 1v2l9 2 14 8 6 3h33l23-2 13-1v1l-5 1 2 2 9 3 2 5 3 4h-4l-3-4 2 4 6 11 5 2v10l-3-2 1 8-13-1-14-5-10-5-27-6-16-3-14-7-10-8-8-8-3-2v-2l-5-2-6-4-23-11-17-9-18-12-16-10-25-12v-2l-4-1-12-8-8-7v-2h-2v-2h-2l-5-6v-2h-2l-11-14-10-10v-2h-2l-7-8-8-8-7-8-3-5-8-10-7-7-14-16-7-11-6-17-5-15-8-16-8-12-9-14-14-25-13-18-8-14-11-26-9-20-12-36-11-28-5-14-1-5-1-51-4-10-13-21-1-5v-12l5-24 1-8v-34l-2-20-4-29-1-9 2-4 8-1 2-20z" fill="#DAEDF4"/>
<path transform="translate(603,388)" d="m0 0 5 1 6 16 10 35 6 24 15 55 4 4 14 6 27 10 43 16 25 9 24 9 31 12 4 3 3 36 5 44 4 56 2 17-1 7-7 8-13 10-16 13-14 11-16 13-13 11-14 12-12 9-14 11-13 11-14 12-14 11-15 13-12 9-5 2-87 3h-28l-3-9-6-24-7-25-11-43-10-36-7-23-4-5-14-8-41-18-15-7-23-11-20-9-14-8-2-2v-98l6-12 13-15 14-15 7-8 11-12 12-13 16-17 9-11 7-7 7-8 11-12 13-14 7-8 7-7 10-7 9-3 48-11 33-8z" fill="#FCFCFC"/>
<path transform="translate(448,474)" d="m0 0h10l4 3v30l-3 39-4 41-1 21 5 2 17 9 39 16 36 15 39 15 21 9 15 8 9 8 1 2 5 44 6 64 5 43 1 12v27l-3 5-9 8-5 3-20 3h-3v2h25v1l-87 3h-28l-3-9-6-24-7-25-11-43-10-36-7-23-4-5-14-8-41-18-15-7-23-11-20-9-14-8-2-2v-98l6-12 13-15 14-15 7-8 11-12 12-13 16-17 8-10 1 2 8-4z" fill="#DAEDF4"/>
<path transform="translate(727,1092)" d="m0 0 5 2 11 9 47 30 17 10 10 7 5 4-1 15-4 36v8l1 5-39 26-17 11-36 22-17 10-24 14-28 15-16 8-30 14-39 16-40 15-23 7-54 14-28 5-50 8-8 1h-15l-6-3-14-11-15-11-1-2 28-15 33-16 32-17 45-27 44-29 19-13 23-16 14-10 13-10 17-13 16-12 14-12 28-22 30-26 14-12 11-9 12-11 13-12z" fill="#1885B4"/>
<path transform="translate(1108,1061)" d="m0 0 5 1 8 5 1 3v11l-7 45-5 33-4 16-2 7 3 7-11 9-23 16-32 22-38 24-24 15-25 15-26 15-26 14-47 24-25 12-30 13-21 9-26 10-25 9-44 15-35 10-49 12-31 6-89 13-15 1h-33l-8-4-14-8-7-2v-2l7-4 20-4 39-7 42-9 34-9 41-13 29-10 31-13 39-17 29-14 23-12 23-13 20-11 27-16 23-14 24-15 19-12 17-12 28-19 17-12 22-15 19-14 16-13 20-15 21-16 14-11 14-12 21-16 28-20v-6z" fill="#1885B4"/>
<path transform="translate(597,932)" d="m0 0h32l5 4 12 22 11 23 15 31 8 17 3 6-2 4-8 8-8 7-13 12-9 9-8 7-11 10-8 7-14 12-15 12-13 10-26 22-14 11-20 15-23 16-28 19-18 12-21 13-20 12-28 15-24 12-22 12-24 11-41 16-3 1h-7l-5-5-9-10-22-22 1-4 10-7 19-12 20-12 12-8 17-12 36-26 21-16 19-14 17-14 14-11 10-9 11-9 10-9 11-9 11-10 8-7 13-12 8-8 8-7 10-10 8-7 12-11 13-12 23-23 7-8 44-44 1-2h2v-2h2v-2l8-7 3-5-31-1z" fill="#1885B4"/>
<path transform="translate(1135,1172)" d="m0 0h10l10 4 8 7 5 10 2 6v14l-6 9-5 5-8 7-15 10-14 10-20 14-17 12-22 14-26 16-22 14-29 17-26 15-27 15-23 12-42 21-33 15-37 15-26 10-31 11-36 12-40 14-5 1v-1l-25-1-8-5-1-7-9-1-18 3-17 5-6 2-15 8-4 6-3-1 3-12h2v-2l5-3v-5l-3-3 4-5 5-3h11l-1-3 4-1 1-4-16 4h-7l2-2-16 2-6 2 1 4 2 3-2 6 3 5-1 4-5 3-3 8-2 4v6l-4 1-4-10v6l-5-1-4-5v-11l-5-1-3-5-6-9 1-4 3 4v2l3-1-4-4v-4l-9-2-3-3 7-3 45-7 34-5 40-9 43-11 38-12 49-17 25-10 22-9 29-13 26-12 30-15 19-10 30-16 24-14 28-17 19-12 16-10 22-14 16-11 43-30 15-12 11-7z" fill="#FCFCFC"/>
<path transform="translate(1219,1254)" d="m0 0h11l4 5-9 11-13 15-24 24-8 7-10 10-8 7-15 14-14 12-21 16-14 10-20 14-18 11-20 11-15 7-12 6h-2v2l15 1v1l-20 4-44 14-66 13-36 5-49 5-59 3-36 4-12 1h-45l-4-3 27-10 36-12 29-10 39-14 39-16 21-9 34-16 50-25 24-14 17-9 27-16 22-13 17-11 23-14 22-14 20-14 2-1 28 11 4 1h7l24-5 16-6 25-10z" fill="#1885B4"/>
<path transform="translate(717,1015)" d="m0 0 10 1 12 6 6 5 7 11 3 8v12l-4 11-7 9-10 9-8 7-10 10-8 7-12 11-11 9-28 24-15 13-13 10-16 13-11 9-17 13-16 12-18 14-19 13-23 16-44 29-11 7-28 17-21 12-32 17-14 7-4-1 17-14v-3l-23-2-8-1-5-1-8-4-6-7-9-5-10-1 1-2h3v-4l-11 1-22 7-10 4-4-1-1-2h3v-2l34-13 23-10 17-8 22-12 28-14 22-12 21-13 24-15 20-14 12-8 16-11 17-12 17-13 16-13 11-9 14-12 17-13 10-8 10-9 8-7 10-9 8-7 12-11 9-9 8-7 13-12 14-14 16-8z" fill="#FCFCFC"/>
<path transform="translate(216,621)" d="m0 0 1 4v18l-1 14v83l4 51h2v-2l4 1 5-8 12-21 44-66 14-20 11-20 2-2 6-1 1 1 1 22 1 4v7l-6 12-12 18-42 62-28 38-5 2-1 2-1 17h-1l-1-5v-9l1-7v-11l-3-3v-2l-5 3-10 13-11 18-19 28-14 20-28 38-11 16-13 17-12 16-11 14-11 11-3 2-4-1-2-8-5-23-8-38-6-41v-13l10-16 10-13 12-15 12-17 12-19 11-16 12-17 30-45 13-22 14-23 14-22 12-20z" fill="#1885B4"/>
<path transform="translate(286,962)" d="m0 0h1l3 10 11 16 9 11 27 27 11 9 15 12 21 14 11 10-6 7-11 11-8 7-13 11-22 18-14 11-18 14-17 12-18 13-16 11-27 18-26 15-12 7-4 1-5-5-12-18-16-27-16-24 1-7 9-10 7-8 13-15 10-11 9-11 8-8 9-11 11-13 12-16 14-17 11-14 10-12 11-14 11-13z" fill="#1985B4"/>
<path transform="translate(1029,1041)" d="m0 0 8 1 26 8 45 11 3 2v6l-16 12-18 13-17 13-15 13-17 13-21 16-12 9-16 13-19 14-16 11-19 13-17 12-15 10-23 16-24 15-26 16-25 15-24 14-27 15-11 6h-3l1-5 5-6-2-5-1-2v-9l5-8 6-5 6-3 7-9 5-2 1-11-8 2-7 3h-6l5-5 20-12 51-34 17-13 6-4 4-11 3-24 6-7 32-21 23-15 44-29 16-11 17-12 19-13 12-9 9-6z" fill="#FCFCFC"/>
<path transform="translate(704,237)" d="m0 0h17l3 3 5 12 12 22 1 7-3 3-14 7-20 13-19 12-18 12-20 13-24 15-14 8-14 4-43 9-44 11-10 2h-9l-1-4-2-21-7-33-5-26-1-8 12-5 27-18 16-12 18-12 11-4 25-4 38-3z" fill="#FCFCFC"/>
<path transform="translate(1108,1061)" d="m0 0 5 1 8 5 1 3v11l-7 45h-1v-9l3-21v-8l-3 1-5 15-7-2-5-2h-3-4l-1 6-2 3-3 1-1 2-7 3-9 3-1 3-6 4-3 3h-2l-5 6-5 2-8 7-10 5h-2v2l-15 8-8 7-4 4-4 7-12 9-9 6-12 5h-3v2l-11 6-12 13-12 10-2-1v-1l-5 5-11 5-12 6-10 9-13 10-9 4-11 7-9 5-4 4-12 6-13 5-2 2h-3v2l-15 10-5 4-5 3-8 6-6 5-8 3h-3v2l-6 1-16 8-8 6-5 4-6 6-10 3-4 2h-4l-1 2-21 7-13 5-15 5-17 7h-2l-1 3-6 3-5 4-4 2-1 2-4 1v4h-2l1 2h15l5-1h7l10-1 4 1 10-4 16-3 12-4 8-4 12-4 9-4 24-9 18-6 10-3 5-3 13-5 12-5 15-7 11-5 20-8 4-2 11-8 7-6 5-3 8-5 9-2 15-7 9-4 6-3 9-5 9-4 12-7 8-5 9-4 5-5h3v-3l18-11 10-7 4-5 5-2 5-4h2v-2l10-6 2-3 3-1 4-4 11-6 7-3 4-2v-2l10-5 9-7 5-3 6-4 8-5 9-3 3-8 1 4-4 14 3 7-11 9-23 16-32 22-38 24-24 15-25 15-26 15-26 14-47 24-25 12-30 13-21 9-26 10-25 9-44 15-35 10-49 12-31 6-89 13-15 1h-33l-8-4-14-8-7-2v-2l7-4 20-4 39-7 42-9 34-9 41-13 29-10 31-13 39-17 29-14 23-12 23-13 20-11 27-16 23-14 24-15 19-12 17-12 28-19 17-12 22-15 19-14 16-13 20-15 21-16 14-11 14-12 21-16 28-20v-6z" fill="#167BA8"/>
<path transform="translate(727,1092)" d="m0 0 5 2 11 9 25 16 1 2-7-1-7-4-11-1-14 1-15 4-13 5-10 5-7 4-7 6h-2v2l-3 2-4 8-4 2-2 4-4 5-3 3-7 9h-2l-2 4-7 7-1 2h-3l-5 6h-3v2l-9 4-5 2v2l-6 2v2h-3v2h-5v2l-6 2v2l-8 4-3 1-2 4-8 6-7 8-3 3h-2v2l-9 5h-2v2l-3 2h-4v2h-2v2l-11 6h-3v2h-2v2l-10 5-5 4-8 4h-2v2l-10 7-15 14-13 7-12 9-7 4h-2v2l-10 7-9 6-7 4-17 11-5 3h-6l-17 7-5 1-5 5-5 8-1 5h-2l1 3 4 1 10-3h18l12-3 15-2h6l5 1 27-6 16-3 15-5 5-2 8-3 25-5 9-3 11-2 11-5 10-5 9-5 3-2h3v-2l8-2 1-2 7-2 12-2 13-6 10-4 8-4 10-4h2l2-4 10-5 2-3 8-3 8-6 16-10 18-9 8-3 8-4 3-3 7-4h2v-2l5-3 3-1 2-4 12-8 10-5 10-9 7-3 5-5 6-2v-2l2-1 1-3 4-1 1-2 2 1v-2l6-2 2-3 2-15-6 1-3-4-2-6-1-9 2-3h2l1-3 2 15 5-2 2-5v-9l-3-2v-2l5 2 2 2-1 15-4 36v8l1 5-39 26-17 11-36 22-17 10-24 14-28 15-16 8-30 14-39 16-40 15-23 7-54 14-28 5-50 8-8 1h-15l-6-3-14-11-15-11-1-2 28-15 33-16 32-17 45-27 44-29 19-13 23-16 14-10 13-10 17-13 16-12 14-12 28-22 30-26 14-12 11-9 12-11 13-12z" fill="#167AA8"/>
<path transform="translate(216,621)" d="m0 0 1 4v18l-1 14v83l4 51h2v-2l4 1 5-8 12-21 44-66 14-20 11-20 2-2 6-1 1 1 1 22 1 4v7l-6 12-12 18-42 62-28 38-5 2-1 2-1 17h-1l-1-5v-9l1-7v-11l-3-3v-2l-5 3-10 13-11 18-19 28-14 20-28 38-11 16-13 17-12 16-11 14-11 11-3 2-4-1-2-8-5-23-8-38-6-41v-13l10-16 10-13 12-15 12-17 12-19 11-16 12-17 30-45 13-22 14-23 14-22 12-20zm-26 51-2 1-3 10-3 8-3 3v2l-3 1-2 4v3h-2l-9 15-5 6-8 14-4 4v2h-3l-3 10h-2l-7 11-5 6-2 1v2h-2l-5 10-3 3-3 5v2h-2l-3 9h-2l-8 16-3 5-3 6-8 10-3 5-5 5-1 5h-2l-2 7-1 16 1 22 1 13 1 22-2 11 1 4 4 7h2v2l3 1h10l4-4 3-1 11-20 6-10 10-15 9-14v-3l4-2 2-5 6-8 6-7 3-5 7-8 2-5h2l6-10 5-7 4-9 4-4 3-6 6-7v-2h3v-2l3-1v-2l5-1 2-7 4-1 6-4v-46l-1-55-1-16-2 1v3l-3 1v2l-5 1-1-2-1 2-5-4-3-6z" fill="#167BA9"/>
<path transform="translate(230,844)" d="m0 0h1l7 27 12 35 1 9 4 2 10 3v1l-16 1-5 2-11 13-10 14-16 24-10 13-15 20-13 18-16 21-10 14-12 14-7 8-11 12-4 1-3-5-8-24-7-14v-6l13-16 16-20 12-16 14-20 14-19 13-17 10-14 11-16 12-17 19-28 4-6z" fill="#1985B4"/>
<path transform="translate(672,1015)" d="m0 0 4 5 7 15-2 4-8 8-8 7-13 12-9 9-8 7-11 10-8 7-14 12-15 12-13 10-26 22-14 11-20 15-23 16-28 19-18 12-21 13-20 12-28 15-24 12-22 12-24 11-41 16-3 1h-7l-5-5-9-10-22-22 1-4 10-7 19-12 20-12 12-8 17-12 18-13 17-12 1 2-3 6-3 5-17 17-13 7-11 6-3 3-14 7-13 8h-2v2h-6v2l-6 2-2 9-1 5 3 2 4 1 7 8 8 4h11l16-8 15-8 3-1v-2l11-6 10-6 13-5h4l10-4 7-4 13-5 8-5 5-2 6-4 11-7 18-11 13-7 14-10 13-9 3-3 6-4 11-9 4-4 8-5 5-5 11-7 14-8 3-1v-2l5-1 2-4 6-4 5-5 8-6 5-5 8-7 5-4 2-3 7-4 13-8 6-6 5-3 9-9 2-3h2l2-4 11-11 9-11 6-4h2l1-4 5-4 1-2h2v-5l6-5 4-4 4-1z" fill="#167BA9"/>
<path transform="translate(249,921)" d="m0 0h17l10 4 6 5 5 9 1 4v15l-3 8-6 9-18 22-8 10-11 14-11 13-13 17-18 22-12 14-12 13h-2v-7l5-8-4-4 1-6 3-3 2-8 4-4 3-10h-6l-11 7-5-1-1-2h3l-3-9-6-4 1-4 13-18 14-19 10-13 13-18 16-24 11-14 8-9z" fill="#FCFCFC"/>
<path transform="translate(303,643)" d="m0 0 2 1 3-1 4 4 4-3 6-1 3 4v22l1 12-1 4 3-1v-2l10 1 5 5-1 5 7 6-3 3 1 4-12-2v3l4 1v13l-2 3h-3v8l-3 8h-2v2h-2v3l2 1 1 4-4 4-6 4-10-2v2l-12-1v6l-6 3-4 6-5 16-3 14 1 6 1 3 17 5-3 3 1 4-2 2-8-1-4-2-11 3-3 1-2 4-4 4h-2l-1 4 2 1-2 4 1 3-3 5-2 4 3 2-1 7v14l4 8v3l-1 2 5 2 2 4-8 8-1 2 2 5 3 3 3 5 2 2-4-1-10-3-4-3-4-15-11-33-5-18v-5h-2l-1-4v-20l2-3 5-2 10-14 15-20 25-37 19-28 10-15 6-10 2-5v-7l-1-4-1-22-7 2-9 16h-1l1-8 4-11-4 2-4 6-5 4-4 8v7l-3 5-5 4-5 6-3-1 1-7-4 4v-3l4-8 5-12 2-7h5l3-9 2-2h5l1-2z" fill="#051621"/>
<path transform="translate(796,1479)" d="m0 0h8v1l-15 2v2l13 3 2 2-23-1-6 1-1 3-10 3-5 4-6 1h-8l2 8-5-2-16 1-7 2-22 2-6 2 2-6-7 1-6 2-5 2-6 3-1 2-10 2 16-1 10-2 3 2-4 2-14 2 3 2-6 2 1 4-5-1-6 2h-3v-2l-11 2-4-1v2l-19-4-3-1v2l8 1 19 5 3 1 1 2 24 3 21 6 18 3 9 2 16 2 43 2h67l27-1h17v1l-36 3h-96l-65-8-17-3-8-2-22-3-27-7-8-2-19-6-16-4-12-5-17-4-3-3-3-10 1-1 38-3 40-6 29-6 9-1 2 1h45l38-4 10-1z" fill="#051621"/>
<path transform="translate(664,1416)" d="m0 0 4 1 23-1-1 3-16 9-18 6-10 5-8 6v4l3 2h12l5 2 6 1h12l8-1h27v3l-7 7-1 2h5l-3 2-40 14-5 1v-1l-25-1-8-5-1-7-9-1-18 3-17 5-6 2-15 8-4 6-3-1 3-12h2v-2l5-3v-5l-3-3 4-5 5-3h11l-1-3 4-1 1-4-16 4h-7l2-2-16 2-6 2 1 4 2 3-2 6 3 5-1 4-5 3-3 8-2 4v6l-4 1-4-10v6l-5-1-4-5v-11l-5-1-3-5-6-9 1-4 3 4v2l3-1-4-4v-4l-9-2-3-3 7-3 45-7 34-5 40-9z" fill="#F3FDFE"/>
<path transform="translate(1219,1254)" d="m0 0h11l4 5-9 11-13 15-24 24-8 7-10 10-8 7-15 14-14 12-21 16-14 10-20 14-18 11-20 11-11 5-12 4h-7l2-4 6-5 6-4h2l1-3 10-7 11-9 9-7 5-5 3-2h3v-2l17-11 5-5 9-6 10-9 4-1v-2l8-7 4-4 2-6-1-5h3l2-5 2-9 4 1v-4h8l10-4 4-3 4 1-2 1 3 2 3-5-1-2 2-1 1-3 2-1 4-8h5v-2l6-2 1-8 3-5 1-2-10 2 2-2 25-10z" fill="#167BA9"/>
<path transform="translate(309,938)" d="m0 0h4 4l4 4v2l6 1 6 4 10 4 3 3v2l-20-3 17 8 3 3 2 5 8 7 1 3-1 7 5 2 2 2v4l-5 1v2l5 1 3 3v12l3 3 1 6 2 2-1 5h3l7 1 5 4 2-1 7 4 3 2 2-1 2 9 5 5 2 3-13 14-4-2-12-10-18-12-10-8-11-9-12-11-23-23-11-15-6-9-2-5 1-24 2 1 1 5 5-5 7 1 1-2h2z" fill="#051621"/>
<path transform="translate(1103,1266)" d="m0 0 16 6 13 5 4 1h7l10-2h6v1l-12 3-16 1-4 4-18 2 3 3h-17l-14 2v2l-9 5-9 10h-2l-2 4-7 6-9 6-7 3-31 12-13 5-10 6-3 1-3 5-7 5-5 3-6 5-16 8-15 8-10 4-15 8-5 3-5 2-2 4-17 12-5 1-19 5-29 10-18 10-12 7-10 3-17 3-17 4-9 1h-14l1-3 40-14 32-12 29-12 21-9 34-16 50-25 24-14 17-9 27-16 22-13 17-11 23-14 22-14 20-14z" fill="#167AA8"/>
<path transform="translate(1084,1411)" d="m0 0 2 1-1 1h7l5 1-3 1v2l-13 4h-2l1 4 3 2-5 4-15 8-10 7-9 4-5 5-5 1v-3l-13 4-11 1h-14l5 2-4 2h-11l-2 4-3 1 8 1 5-1v-2l5-3h4v2l3 1v1l-9 1-5 3h-3v2l-10 5-2 4-5-1-2-3h-4l-2 4h-3l-2 4-5 1h-4l-3 8h-4-2v2l-10 1-4 1 2-5 1-1-3-1-13 4-10-2-7-2-5-1-5-6h-6-3l-5 5-2 1-8-6-3-1v4h-6l-4 1-1-2 1-3 3-2 1-4-12-1v-1l41-5 23-4 56-11 44-14 15-3h5v-2l18-6 34-16z" fill="#051621"/>
<path transform="translate(375,1056)" d="m0 0 5 2 14 12v3l-16 16-8 7-13 11-22 18-14 11-18 14-17 12-18 13-16 11-27 18-26 15-12 7-4 1-5-5-12-18-16-27-9-14v-3l9 3 7 6 8 14 3 6 4 5v2l3-1 3 3h20l9-1v-1l13-3 1-3 9-6h2l1-3h2v-2l4-1 1-3 17-11 6-4 3-5 4-1v-2l8-3 9-7 10-9 17-11h2v-2l11-9 6-7 11-9 3-5 7-7 3-5 9-5 12-4v-7z" fill="#167AA8"/>
<path transform="translate(467,1212)" d="m0 0 3 1 1 1h5l-1 4-8 7-14 10-9 6-16 9-17 12-11 8-28 14-10 9-1 1 1 9-2 12 4 7 1 3 8 2 14 2 1 5-7 8-2 3 2 1-22 11-4-1 17-14v-3l-23-2-8-1-5-1-8-4-6-7-9-5-10-1 1-2h3v-4l-11 1-22 7-10 4-4-1-1-2h3v-2l34-13 23-10 17-8 22-12 28-14 22-12 21-13 24-15z" fill="#F2FDFE"/>
<path transform="translate(230,844)" d="m0 0h1l7 27 12 35 1 9 4 2 10 3v1l-16 1-5 2-11 13-10 14-16 24-10 13-15 20-13 18-16 21-10 14-12 14-7 8-11 12-4 1-3-5-8-24-7-14v-6l6-7 5-3v8h-2l2 5 2-2 8 5 5 1 10-1 4-3 3-1 1-3h2l1-5 9-13 8-9 1-2h2l2-5 4-5 7-9 6-12 8-11 7-12h2l2-4 7-8 9-10 8-9 3-5 4-1 1-3 12-5 2-1h5v2l2-1v-11l-3-1-4-9-2-5h-2v-4h-2l-2-6-1-6-3-1-1-7z" fill="#167BA9"/>
<path transform="translate(1146,1046)" d="m0 0h7l-1 2 7-1-1 2h-2v2l4 2 2 4-5 1 2 5-1 1-7 1 3 5-1 11 2-6 2 1-1 8v3l1 2v12l-2 3-2 13-2 5 5 1v3l-4 4v2l-7 2 4 5-4 1 4 5-10-1-7 2 3 2 3 3 3 2-15 1-5 4-2 4v5l6 5 1 4-11 7-6 5h-3l-3-7 5-17 5-30 4-28 4-25v-11l-1-3-7-4v-1l9-3v-1l-2-1 1-5 4-3 9-2 1 2 6-1z" fill="#051621"/>
<path transform="translate(220,611)" d="m0 0h1l3 13 4 1 1-3 8-6 4-4-2 8-4 7 7 2 2 6v8l-1 4 1 15v12l-3 9v6l-3 12h4l-1 7-2 7-2 21-2 9 4-8 3 1-1 13-1 10h3l-2 5-13 23-3 2-3-2v2h-2l-1-2-4-49v-83l1-14v-19z" fill="#051621"/>
<path transform="translate(318,652)" d="m0 0 3 1 1 22 1 4v7l-6 12-12 18-42 62-28 38-5 2-1 2-1 17h-1l-1-5v-9l1-7v-11l-3-3v-2l-3-1h5l2-5 7-11 10-19 9-14 10-15 5-8 7-10 7-11 5-9 4-7 2-5 9-14 9-16 2-2z" fill="#4290B0"/>
<path transform="translate(720,859)" d="m0 0 2 2h3l-2 5-1 1 3 2v8l-3 3-6 3h-2l2 5 4 1-1 4-6 2-1 4 2 1-2 4-18 6-5 1-7 4-7 1v-2l-2 1-9 1-7 6-3 1-1 3 1 8 4 1 3 3 4 2 2 7 3 1 2 6-7-2-2-4h-3l4 5 1 15-3 1-2-1v10l5 11 5 12 8 19 4 9h5l3-2v3l-7 6-10-19-16-34-19-38-6-10-3-2-12-1 1-5-1-4 8-7 15-5h2l1 2 10-4 2 1-1 4 18-6 2-5h2v-2l-9 3-2-1 8-6 2-7 5-6 24-16 2 2h2v-2l6-4z" fill="#051520"/>
<path transform="translate(1194,1230)" d="m0 0h5v2l6-2 4 3v3l-2 1 9 2v6l4 5h7l9-1 4 1v3l-5 5-4-2-1-1h-11l-17 5-26 11-13 4-20 4h-7l-12-4-20-8 5-5 20-14 8-6 2 1-2 4 9 1 15-8 7-5v3l4-1 10-2 4-2h2z" fill="#051621"/>
<path transform="translate(597,932)" d="m0 0h32l5 4 6 11-1 10-3 1-1 2h-20l-2 7-4 4-11 8-6 5-5 3-3 3h-2v2l-5 2v2l-5 2-2 5h-2l-2 4-5 5-5 6h-2v3l-5 5-6 7h-2l-2 4-4 5-6 4h-2l-2 4-6 4h-3v2h-3l-2 4h-2v2h-2l-1 3h-2v2h-2l-1 4h-2l-2 4-2 3h-2v2l-5 5-4 2v2h-2v2h-2v2l-5 2v2h-2v2l-5 2h-3l-2 5-7 8h-2v2l-7 5h-2l-2 5h-2v2l-8 6h-2v2l-7 6h-2l-2 5h-2v2h-2v2l-8 4h-2v2l-12 6-5 4-5 2-4 2-1 2-3 3-3 5-7 6h-2v2l-16 11-4-1v2l-6 2h-2l2-4 21-16 16-12 16-13 14-11 10-9 11-9 10-9 11-9 11-10 8-7 13-12 8-8 8-7 10-10 8-7 12-11 13-12 23-23 7-8 44-44 1-2h2v-2h2v-2l8-7 3-5-31-1z" fill="#177BA8"/>
<path transform="translate(746,1075)" d="m0 0 1 2-1 6 2 2 5-1 2-1-1 6-2 5h-3v10l5 2 3 3h5l3-1 5-1 5-3h12l9 4 5 2 10 2 6 4 1 3-2 1-4-2v2l13 3 7 4 4 1 1 5 2 1 1-2 1 4-6 12 9-11 8-7 4-2-3 5-4 5-1 2h-2l-2 4-4 5 5-4-1 5-8 7-7 6v-4l-2 12-2 9-1 5-2 4-1 16 6 2 1 3-9 7h-2l-1-4 1-16 4-37v-6l-11-8-25-15-22-14-24-16-8-7-3-1 2-4 11-10z" fill="#051621"/>
<path transform="translate(1186,1309)" d="m0 0 2 1-1 4 1 1v5l-9 10-15 15-7 6-5 7-3 8-5 6-8 7-5 4v3l-5 4-40 21-37 18-19 7-4 1h-13l-2-1v-2l15-8 20-9 23-13 19-13 14-10 19-14 13-10 10-9 8-7 15-14 10-9z" fill="#DBEEF5"/>
<path transform="translate(1244,1249)" d="m0 0m-2 1 2 1-8 8 5-1 1-1h6l1 9-5 15-8 11-6 4-10 13-5 9-8 8-10 8-16 13-13 10-14 11-7 6-2 5-12 7-4-1 18-18 3-5 3-7 9-10 8-7 15-15 2-3v-5l-1-4 9-10 20-20 9-11 12-14z" fill="#F3FDFE"/>
<path transform="translate(187 1e3)" d="m0 0h10l-1 6v10l8 5 7 14 6 3 1 4-1 2v8l-8 10-9 11-12 14-12 13h-2v-7l5-8-4-4 1-6 3-3 2-8 4-4 3-10h-6l-11 7-5-1-1-2h3l-3-9-6-4 1-4 13-18z" fill="#F3FDFE"/>
<path transform="translate(502,250)" d="m0 0 5 1h40l-5 4-17 12-13 10-20 13-12 7-6 1 3 12v5l-2-3-2-7v-4l-11 2-18 3h-17v-3l11-8 13-11 15-10 20-11 14-11z" fill="#177BA9"/>
<path transform="translate(700,354)" d="m0 0h11v2l4 1 2 2 2 1 1 3 1-3 3 1 1-2h2v2l7 1v2l6 1v2l9 2h10l4-1 1 4-6 4-3 1 2 5-4 2-2 4-3 3-5 3-3 4-1 3-8 2v3l-12 5h-7l-10-2-1-2 1-5-3-9h-2v-10l-5-2v-5l-3-1 1-3 5-1 2-2-2-5h4v-7l-1-2z" fill="#041520"/>
<path transform="translate(619,1492)" d="m0 0h11l-3 2-10 3-21 6-6 3h-2l2 5 7 1 7 6 5 5 5 2 2 4 8 1 19 5 3 1 1 2 24 3 21 6 18 3 9 2 16 2 43 2h67l27-1h17v1l-36 3h-96l-65-8-17-3-8-2-22-3-27-7-8-2-19-6-16-4-12-5-17-4-3-3-3-10 1-1 38-3z" fill="#05161E"/>
<path transform="translate(820,1513)" d="m0 0h37l2 1h7l10 3v5l18-1 4-1 5 1-4 2h-5l2 5-3 2-12 3-2 1 4 3v2h-7l-4 2-15 1-19-2-2-1v2h-36l-2-2 32-1 13-1 2-2-15 2-3 1h-23l-27-1-10-2 2-2-2-2 2-1h10l5-1h11l5-1 9 2h4v-2l-5 1-4-2 2-4 5-6 6-2z" fill="#041520"/>
<path transform="translate(796,1238)" d="m0 0 3 1-2 4-6 6-1 4 2 14-5-5-3-1-1-2v-6l1-2-3 2-1 5h-1l1 10 3 14v6l-4 5-14 9-8 4-10 6-3 3-6 8-1 3-4 2h-3l1-5 5-6-2-5-1-2v-9l5-8 6-5 6-3 7-9 5-2 1-11-8 2-7 3h-6l5-5 20-12 10-7 2 1-2 2 5-1 10-7z" fill="#F3FDFE"/>
<path transform="translate(540,1500)" d="m0 0h17v1l-16 1 3 10 5 3 17 4 12 5 20 5 14 5 26 6 12 3 22 3 13 3 62 8 10 1h96l26-2h10l-2 2-19 2 2 1h8l2-1h9l-1 2-9 1-4 3h-69l-60-1v-2h-10l-7-2-2-3-3-1-16-1-3 4h-22l-12-1-1-3 12-3v-2l-8-1-9-3-22-2-24-6-19-3-1-4-10-3-15-4-13-5-4-1-21-2-4-3-2-11 2-2z" fill="#DBEEF5"/>
<path transform="translate(440,905)" d="m0 0 4 1 1 3h2l2 2 3 2v3l2 8v11l1 5-3 7-1 2-2 13-5 3-2 5h-2v2l-5 1-2-3h-8l-1-6v-11l2-4-3 1-3-3 2-2v-9l3-8-2-1 2-7 3-1v-2h2v-2l10-1 1-4-1-1z" fill="#041520"/>
<path transform="translate(211,631)" d="m0 0 2 2 1 38v19h-1l-1-15-1 3-3 3h-2l-1 3v-2l-5 1-6-7-3-1-1-2h-2l-1 7-4 11-4 5-2 1-3 7h-2l-2 5-8 13-3 1-2 6-6 10-5 6h-3l-1 6-2 4h-2l-2 5-7 9-3 4h-2v2h-2l-2 7-3 4h-2l-2 6-2 3-5 3-2-1 14-21 12-17 30-45 13-22 14-23 14-22z" fill="#177BA9"/>
<path transform="translate(220,611)" d="m0 0 1 4 1 28 2 5 7 3 4 5 2 6v7h-2v8l-1 4-1 6-7 13h-2l-1-2-3 4-1 13v9l-1 8v21l3 8 3 12h2v3l5 1 4-2-2 5-5 9-3 2-3-2v2h-2l-1-2-4-49v-83l1-14v-19z" fill="#041D28"/>
<path transform="translate(1203,1148)" d="m0 0h2l-2 5-2 4h4v3l9 3-2 7 5-1h4l1 4-4 1-2 4-5 6-1 4-12 2-1 5h-6l-1 2-5-10 3 9 1 4h-3l-8-10-5-12-8-12-4-5-1-5 6 5 3 5 5 4-1-6 4 2-1-6 4 4h3l-3-4 1-3 20-4z" fill="#041520"/>
<path transform="translate(1562,734)" d="m0 0h1l3 15 5 3v47l-1 3v14l1 2 1 26v26l-2 4-1 14 3 1v13l-4 2-3-2h-2l-1-3-1-19-1-6h-1v-17l1-8 2 1 1 18 1-47v-24l-1-43z" fill="#DBEEF5"/>
<path transform="translate(216,621)" d="m0 0 1 4v18l-1 14v83l4 51h2v-2l4 1 5-8 12-21 44-66 5-7 1 2-7 12-12 20-6 7-6 11-7 10-11 18-12 22-6 9h-5l-2 4-10 13-11 18-19 28-5 7h-2l2-5 1-2h2l1-5 4-5 8-16 7-11h2l2-6 8-9 3-2 4-11-1-35-1-17-1-74-1-42z" fill="#0A6C9D"/>
<path transform="translate(446,1223)" d="m0 0h2l-1 4-20 12-21 13-32 17-22 11-22 12-24 11-41 16-4-1 3-2h3v-2l8-4 10-4 9-4h4v-2l13-5 7-4 19-10 5-3h2v-2l19-9 28-13 6-4 10-6 12-6h2v-2l6-3h3v-2z" fill="#0E6F9F"/>
<path transform="translate(1107,1164)" d="m0 0 1 4-4 14 3 7-11 9-23 16-32 22-38 24-24 15-25 15-26 15-15 8-3-1h2l2-4 20-12 15-7 10-6 6-1 2-4 5-3 4-1 1-2h2l2-4 7-5 8-4h2v-2l9-5 6-4h2v-2l6-3 10-8 20-12h2v-2l6-3 6-4 8-6 4-2v-2l13-9h2l2-4 3-1 3-9 6-14z" fill="#0D6E9E"/>
<path transform="translate(145,683)" d="m0 0h5l5 3 2 4 7-2 1 1v5l-7 10-9 13-9 15-10 16-7 10-12 21-2 1 1-4 8-17 4-9 5-9h2l2-6 2-5 2-10 9-10 1-4v-8l-3-4-6 1-15 14-2 3-2-1 6-10 9-10 9-6z" fill="#F4FEFF"/>
<path transform="translate(727,1092)" d="m0 0 5 2 11 9 25 16 1 2-7-1-7-4-11-1-14 1-15 4-13 5-10 5-7 4-7 6-2-1 6-7 11-9 14-12 7-7 8-7z" fill="#167BA8"/>
<path transform="translate(877,1022)" d="m0 0 5 2-1 4 9 1v3h2v2h8l7 3 1 7h7l3 1-1 6h-2v2l-3 1 2 4 3 1-3 4-4 1-3-3h-3l2 3v3h-5l1-3-5 2-7-1-10-4 1-4h2v-2h2l-2-5v-5l5-1 2-2h-4l-3-5v-2l-5-2-1-8-2-1h2z" fill="#041520"/>
<path transform="translate(303,643)" d="m0 0 2 1 3-1 4 4 4-3 6-1 3 4v21l-1 7v11h-1l-2-11-1-22-7 2-9 16h-1l1-8 4-11-4 2-4 6-5 4-4 8v7l-3 5-5 4-5 6-3-1 1-7-4 4v-3l4-8 5-12 2-7h5l3-9 2-2h5l1-2z" fill="#051621"/>
<path transform="translate(879,1556)" d="m0 0h10l-2 2-19 2 2 1h8l2-1h9l-1 2-9 1-4 3h-69l-60-1v-3l22-1 1-2 84-1z" fill="#DBEEF5"/>
<path transform="translate(541,1501)" d="m0 0h8l-2 2 6 8 5 4 12 4 11 4 12 2 14 5 40 10 29 5 19 4 40 5 43 2h67l27-1h17v1l-36 3h-96l-65-8-17-3-8-2-22-3-27-7-8-2-19-6-16-4-12-5-17-4-3-3-3-10z" fill="#1372A0"/>
<path transform="translate(651,1417)" d="m0 0h3l-1 3-53 13-31 6-55 8-19 3-17 1-1-2 5-2 29-5 18-2 20-4 36-6 13-4 20-3 25-5z" fill="#0E6F9F"/>
<path transform="translate(177,1008)" d="m0 0h3l-1 4-13 18-24 32-11 13-7 8-11 12-4 1-3-5-8-24v-3l6 2 9 5 13 1 5-3 3-3 3-5 7-7 9-14 6-10 5-6 3-4h2l2-4 3-1 2-6z" fill="#0D6E9E"/>
<path transform="translate(240,1022)" d="m0 0h2l-2 4-4 7-3 11-5 7-4 1v2h-3v2h-2v2l-9 7-9 11-9 12-3 7h-2l-2 5-9 10-4 4h-2v2h-2l-2 4-3 4h-2l-2 4-3 3h-2l-1 4h-2l-2 4-3 5-10 4 1-4 12-14 10-11 9-11 13-14 7-8 9-10 11-14 10-12 10-13z" fill="#187BA8"/>
<path transform="translate(214,881)" d="m0 0v3l-4 9-5 9-2 3-8 15-5 9-4 5-5 7-8 7-6 5-7 8-6 7-6 12-3 4-5 13-3 4h-2l-3 6h-2l-2 4-9 7-6 5v-3l7-9 12-16 14-20 14-19 13-17 10-14 11-16 12-17z" fill="#197CA9"/>
<path transform="translate(1090,1201)" d="m0 0 2 1-3 3 6 1-1 4-10 10-15 11-21 12-15 8-7 4-6 4h-3l2-4 8-4h2v-2l5-5 2-3v-3l11-7 20-14 16-11z" fill="#F2FCFE"/>
<path transform="translate(465,301)" d="m0 0h8l3 11v3h2l2 11v5l-3-1-2-6-2-10-4 2v11h-3l-2 16h-1l-2-21-3 1h-3l-1 2-2-2 1-7 2-5-8 3h-23l-9-2 3-3 6-4h20l18-3z" fill="#051621"/>
<path transform="translate(815,1150)" d="m0 0 5 2 2 2-1 15-4 36v8l1 5-39 26-17 11-36 22-17 10-15 9h-4l1-4 9-7h3v-2l19-9 6-2 7-4h2v-2l6-2v-2l14-9h2v-2l11-8 13-7h4v-2l4-4 3-1 4-4 7-5 5-3 2-6 3-16 4-30 1-11-5-2z" fill="#0E6F9F"/>
<path transform="translate(605,1107)" d="m0 0 2 1-5 5 4 1 1 3-7 11-10 11-15 9-16 8h-3l2-5 2-6 5-6 28-22 10-8z" fill="#F2FDFE"/>
<path transform="translate(327,206)" d="m0 0 2 1-3 5-2 6h-2l-2 5-2 3-7 3-3 5-10 3-4 1-13 13v3h-3l-1 4-6 5-1 2h-2v2l-8 7-8 10-3-1v7l-2 5-6 2-2 4-3 7-10 2v-2l-3-1 4-5 4-1 2-4 4-1 1-5 4-2-1-2 4-5 8-7 6-5 7-8 10-10 8-7 10-10 6-7 1 2h2l1-4 4-4 1-2 4-2 4-5h2l2-4 2-2z" fill="#172936"/>
<path transform="translate(1171,1321)" d="m0 0h2l-2 4-10 9-13 12-10 9-17 13-19 14-18 13-17 11-10 6h-2l2-4 10-8 12-8 14-11h2v-2l11-7 4-3h2v-2l11-8 9-7 3-1 2-4 6-6h3v-2l8-7 3-3h2v-2z" fill="#0E6F9F"/>
<path transform="translate(1057,1424)" d="m0 0h4v4l-10 5-1 1h3v2h-2l-2 4-5 4-5 3h-2v-2l-7 4-7 1 1-4-32 5-6 1v2l-10 2-3-2-1-2 34-11 15-3h5v-2l18-6z" fill="#061820"/>
<path transform="translate(139,429)" d="m0 0 1 2-3 17-3 5-5 5-4 6h-2l-2 10-2 13-7 6-7 11-3 7-1 8-8 17h-2l-2 12-4 10-2 7-2 12-2 3h-2l-1 5-1-4 3-17 9-26 12-26 9-24 12-23 7-15 8-15z" fill="#1B3140"/>
<path transform="translate(287,958)" d="m0 0 2 3 1 7 2 4 4 2 9 14 6 8 4 4v2l8 4 1 5h6l3 5 10 3 6 2 6 5v2l4 2 9 12 4 9 10 7-1 2-19-13-10-8-11-9-12-11-23-23-11-15-6-9-2-5z" fill="#061E29"/>
<path transform="translate(651,1315)" d="m0 0h3l-1 3-16 8-33 15-37 15-38 14-24 7-19 5h-5l1-2 18-7 13-2 11-4 13-4 10-5 12-5 13-5 10-4 13-3 16-8 16-7 10-5z" fill="#0F70A0"/>
<path transform="translate(378,1058)" d="m0 0 5 2 12 11-6 7-11 11-8 7-13 11-22 18-14 11-18 14-16 11-3-1 3-3h2v-2h3v-2l5-2v-2l8-7 13-9 4-2v-2l10-8 8-8h2l2-4 9-7h3v-2l8-6 7-6h2v-2l7-7 4-5h2l1-5-2-4h-2z" fill="#0F709F"/>
<path transform="translate(902,1315)" d="m0 0m-1 1m-3 1h3l-1 3-45 23-25 12-30 13-21 9-26 10-8 3-4-1 3-3 11-5 14-5 13-6 8-3 12-5 11-5 14-5 32-16 16-9 15-6z" fill="#0F709F"/>
<path transform="translate(286,962)" d="m0 0h1l3 10 7 10-1 2-4 2-6 4-4-1 1 4-2 4-17 5-3 3h-2v2l-6 4h-2l-2 5-5 5-2-1 11-14 18-22 11-14z" fill="#167BA9"/>
<path transform="translate(1219,1254)" d="m0 0h11l4 5-9 11-13 15-22 22h-2l1-6 4-5h2v-7l2-3h2v-2l9-6h2l2-6h2l-3-12-7 1-8 3-3-1 15-6z" fill="#0B6D9E"/>
<path transform="translate(549,1501)" d="m0 0h7l1 5 10 5 10 6 7 3 16 4 6 2 10 2 24 6 6 2 1 2 24 3 21 6 18 3v1l-15-1-19-4-29-5-28-7-19-5-10-4-13-2-15-6-7-3-8-9v-2l-2-1z" fill="#1B2731"/>
<path transform="translate(249,921)" d="m0 0h17l3 2-3 1-1 6-6 4-11 10-12 6-5 1-2-6-3 2 2-5 11-13 6-7z" fill="#F2FCFE"/>
<path transform="translate(1491,1068)" d="m0 0 1 2-5 8-4 9-4 10-5 13-3 7-14 29-3 2 1-4v-2l-4 6-2 1 1-4 6-10 1-2-3 2h-4l6-12 4-3 3-9 4-10 2-10 2 4-2 13 2-4 1-10 3-4 2-7 4-6 2-2 2-6 2 1z" fill="#041520"/>
<path transform="translate(413,312)" d="m0 0 15 1 6 4v2l6-2 3 2v5l-6 5-1 5 1 3h-3l-1-3-6-1-1 3-2-1v-2l-4 1-3 2-2-2-4 4v-5l-7 9-4 2 6-9-1-3 1-2h2l2-4 3-5 1-5z" fill="#041621"/>
<path transform="translate(1312,259)" d="m0 0h2v2l6 2 7 6 7 5 7 8 8 9-2 4 1 2-4-2-3-2v2l4 2 2 4-7-2-3-3v-2l-4-1-3-6v-2l-3-1-1-2-5-2-4 3-2-2-4 1-3-2v-4h5v-3l-4-2-1-5 5 1 3 3-4-6-1-3z" fill="#041520"/>
<path transform="translate(1096,1059)" d="m0 0 8 1 7 3v6l-12 9h-7l-17 9h-5l2-5 5-8 4-10 5-2 8-2z" fill="#F2FCFE"/>
<path transform="translate(347,674)" d="m0 0 11 7 11 6 16 7 10 5 20 9 19 8 18 8 11 6 2 4-7-1-24-11-14-6-15-7-23-11-20-9-14-8-1-1z" fill="#EEF8FB"/>
<path transform="translate(200,597)" d="m0 0h6l8 5 1 3v8l-4 9-6 10-5 4h-3l-2-14 1-21z" fill="#F4FDFE"/>
<path transform="translate(656,947)" d="m0 0 4 1 4 5 1 15-3 1-2-1v10l5 11 5 12 8 19 4 9h5l3-2v3l-7 6-10-19-16-34-11-22-1-4 5 1 1-1 2-6z" fill="#051D28"/>
<path transform="translate(697,1477)" d="m0 0h11l7 2 1 3h14l21-2h23v1l-22 1-36 4-12 1h-45l-4-3 13-5 6-1h15z" fill="#167BA9"/>
<path transform="translate(525,266)" d="m0 0 2 1h8l2 3-7 9-10 8-17 9-7 1 1-9-2-1 18-12z" fill="#F2FDFE"/>
<path transform="translate(820,49)" d="m0 0 3 1-4 3-11 1h-6v1h7l4 2 5-2 5 1 1-2h10l9 3v2h3v2l-7 1-2-3-19 1h-11l-3-1-25 2h-21v-1h-12l-5 1-4-2 27-3 13-2 5-1 35-3z" fill="#051621"/>
<path transform="translate(1561,733)" d="m0 0h1l2 21 1 43v24l-1 49-2-2-1-18-1 7h-1v-32l1-10h2l-1-14h-1l-1-28z" fill="#1674A1"/>
<path transform="translate(732,1483)" d="m0 0h7l-2 1v2l-14 2-19 2-16 2-19 3-10 1-12-3-3-3-4-2 12-3 7 1h45z" fill="#041E2A"/>
<path transform="translate(1468,465)" d="m0 0 5 5 2 3-2 1 6 7v2l5 1 3-1-1 3-4 1 4 3v3l-6-2 1 3-1 4-6-7v-2l-4-1-5-5-6-1-1 10 2 4v9h2v5l-3 4-1 5h3l2 5-2 3v4l-3-1v-9h-2l-1-6 2-12-2-4v-12l3-8 2-4h2l3 3 5 2 5 7-2-4-7-8v-2l-4-2-1-4 6 3z" fill="#051621"/>
<path transform="translate(997,1534)" d="m0 0 5 1 4-1h7l-1 2h-2v2l-6 5-3 5-3 1-26 1-7 1-1-4-12-1v-1h27l-14-2 1-2z" fill="#DBEEF5"/>
<path transform="translate(1120,1254)" d="m0 0 2 1-1 2 2 7 6-2 10-3h4l-1 5 1 4-4 2-2 4v3l6 1v1h-7l-12-4-20-8 5-5z" fill="#051E29"/>
<path transform="translate(553,1157)" d="m0 0 2 1-8 9-8 11-16 9-8 3h-4l1-5v-3l5-4 18-14 6-5 2 1-2 2 6-1z" fill="#F2FCFE"/>
<path transform="translate(1130,1077)" d="m0 0 9 1 2 2 1 5 1 8-1 7-2 7-6 2-5-1-3-12v-7l2-10z" fill="#041C27"/>
<path transform="translate(517,877)" d="m0 0 3 3 7 14 4 3 15 3 24 2 4 2-2 1-21 2h-28l-3-9-3-13z" fill="#F8FBFC"/>
<path transform="translate(778,38)" d="m0 0h62l23 2v1l-11 2h-82l-2-2-4-2z" fill="#192D3B"/>
<path transform="translate(502,250)" d="m0 0 5 1h40l-5 4-16 11-3-1v-4l-10 1-9-2-7-3 2-4z" fill="#0B6D9D"/>
<path transform="translate(162,880)" d="m0 0h2l-1 5-16 21-12 17-10 14-12 16-7 9-2 1 1-4 5-10 7-10 7-9 18-27 4-4 6-7 3-1 4-8z" fill="#0F709F"/>
<path transform="translate(77,564)" d="m0 0 1 4-2 13-2 8h-4l-2 19-1 22-3 14-4 8-5 18-1 7h-1v-10l5-30 4-15 5-29 2-13 6-11z" fill="#DBEEF5"/>
<path transform="translate(511,97)" d="m0 0h2l-2 6-3 3-8 2-5-1-2 6-5 3-11 4-2 4-8 3h-7l-2-1-4 1-2-2 12-6 7-4 16-8z" fill="#1A2832"/>
<path transform="translate(746,1075)" d="m0 0 1 2-1 6 2 2 5-1 2-1-1 6-2 5h-3v10l5 2 2 5 3 1-2 1-18-12-8-7-3-1 2-4 11-10z" fill="#051621"/>
<path transform="translate(592,1114)" d="m0 0 2 1-2 4-13 10-11 9-14 12-16 13-15 11h-2l2-4 8-7 6-3 9-11 2-3h2v-2l10-7 4-4 10-8 9-5 5-3 4-1z" fill="#0E6F9F"/>
<path transform="translate(98,764)" d="m0 0h2l3 12 3-2 1 5-4 10h2v8l-16 24-7 9h-3l2-6 12-24 3-5 2-16h1v-11z" fill="#F3FDFE"/>
<path transform="translate(1117,1087)" d="m0 0h1v9l-3 21-1 17h-2l-1 11-2 10h-2l-2-9v-8l2-7v-9l1-1 1-8v-12l4-10z" fill="#4391B0"/>
<path transform="translate(1538,993)" d="m0 0h1l1 5 5 3-1 17-3 9-3-3-2-16-1 42-3 1-2-14h-2l-3 9-1 7h-1v-15l3-3 2-1 1-7v-4l1-9 2-2 1 5 1-13h3l1 3z" fill="#DBEEF5"/>
<path transform="translate(70,586)" d="m0 0 4 3-1 7-1 5-1 40-3 10-6 9-6 10h-1l1-8 4-13 4-8 2-11 1-22 2-19z" fill="#1573A0"/>
<path transform="translate(326,973)" d="m0 0 5 3 2 4v3h2l3 3 5 2 1 5-1 7-7 1-5-1-9-15v-2h-3l-1-3 3-4z" fill="#041D28"/>
<path transform="translate(665,963)" d="m0 0h3l3 7v7h2l2 3-1 5-2 6 1 7 2 2v9l2 5-1 3-11-25-5-12-1-4 1-8h4z" fill="#051621"/>
<path transform="translate(562,1439)" d="m0 0h26v1l-14 2-4 1h-2l-1 2-10 2-10 3-7 1h-18l-1-2 5-1v-4z" fill="#F9FBFC"/>
<path transform="translate(473,1381)" d="m0 0h7l-1 3-28 7-55 9h-8l2-2h4l1-2 6-1 21-5 24-3 9-1 14-4z" fill="#1071A0"/>
<path transform="translate(672,1015)" d="m0 0 4 5 7 15-2 4-8 8-8 7-13 12-9 9-8 7-11 10-4 1 3-6 11-9 4-2v-2h2l2-4 3-3h2v-2l5-1v-2h2v-2l5-5 6-9h2l2-4 5-5h2v-2l2-1-1-4-5-12z" fill="#0D6E9E"/>
<path transform="translate(1301,1376)" d="m0 0 1 4-1 5-6 2 2 1v2h-2l-1 3-7 2-1 5-5-2-1 5-11 5-8 1v-2l11-9 10-9 7-3 2-1 1-4 7-3zm-42 33 2 1z" fill="#DBEEF5"/>
<path transform="translate(522,237)" d="m0 0 2 1v3l2 1v2l11 3h21l-3 2-6 2-25 1h-17l-4-1v-2l14-9z" fill="#051824"/>
<path transform="translate(1050,81)" d="m0 0 6 1 8 2 31 12 13 6 10 4-4 3-3-1-12-1-4-4-5-4-10-4-2-1v-2l-9-2-14-1-3-2 1-2-3-1z" fill="#1A2E3B"/>
<path transform="translate(458,303)" d="m0 0 4 1h-2v2l-5 4-4 3-4 1h-23l-9-2 3-3 6-4h20z" fill="#041E29"/>
<path transform="translate(1103,1266)" d="m0 0 16 6 13 5 4 2h-15l-30 1-2-2 5-5z" fill="#0A6C9D"/>
<path transform="translate(1126,1490)" d="m0 0 2 1-5 3h-2l-2 4-8 6h-7l-1 7-6 2h-8l-3 1-1 5h-2v-9h2l1-4 3 1 2-6 5-2h4l1 4 1-4 13-2 1-4z" fill="#DBEEF5"/>
<path transform="translate(82,565)" d="m0 0h1v10l-7 17-2 8v17l-1 30-2 9-3 4h-2l-2 4-7 9-3 1v-4h2l2-5 6-9 5-10 1-5 1-40 3-15 3-6 3-3z" fill="#1B2832"/>
<path transform="translate(705,1466)" d="m0 0 3 1 8 6 1 5-3 1-13-1-19 1h-11l2-2z" fill="#4592B1"/>
<path transform="translate(151,971)" d="m0 0 1 2-5 8-4 9-4 8-2 3h-2l-3 6h-2l-2 4-9 7-6 5v-3l7-9 12-16 14-20z" fill="#187CA9"/>
<path transform="translate(1557,705)" d="m0 0h1l2 18 1 5v27l-1 23 1 22h1v15h-2l-1 60h-1l-1-64 1-48 1-11v-20l-1-1-1-11z" fill="#1A2C39"/>
<path transform="translate(790,1561)" d="m0 0h37l41 1 8 1v1h-129l-1-2z" fill="#0E6E9E"/>
<path transform="translate(676,1464)" d="m0 0 6 1 2 5 19-5h5l-3 2-37 13-3-1 8-4-4-2-10 2h-5v-3l10-5z" fill="#DBEEF5"/>
<path transform="translate(1463,421)" d="m0 0 4 5 10 19 17 34v7l-3-1-4-7-3-8-3-2-2-12-6-7-4-7v-5l-3-3-4-8z" fill="#18303F"/>
<path transform="translate(292,688)" d="m0 0 1 2-7 12-12 20-6 7-6 11-7 10-11 18-12 22-6 9-4-1 6-7 6-11 9-16 10-15 9-14 5-10 20-30z" fill="#157FAE"/>
<path transform="translate(814,1148)" d="m0 0 6 2 4 3 1 15-2 7-1 14-1 16 6 2 1 3-9 7h-2l-1-4 1-16 4-37v-6l-7-5z" fill="#04212E"/>
<path transform="translate(216,742)" d="m0 0h1l1 11 3 8 3 12h2v3l5 1 4-2-2 5-5 9-3 2-3-2v2h-2l-1-2-3-35z" fill="#051D28"/>
<path transform="translate(762,1115)" d="m0 0 6 2 6 3 3-2-1-2 10 1 8 4 2 5 4 4-1 2-10-2v2l3 1-2 1-24-15z" fill="#051D28"/>
<path transform="translate(925,1550)" d="m0 0h7v1l-7 2 27 2 2 2-3 2-16 1-23-1-3-3-8-2v-1z" fill="#DBEEF5"/>
<path transform="translate(899,1144)" d="m0 0 5 1v5l-8 9-8 6-5 1-3-3 2-6 6-7 6-4z" fill="#DBEEF5"/>
<path transform="translate(216,621)" d="m0 0 1 4v18l-1 14v83l1 14v10l-2-2-1-17-1-74-1-42z" fill="#0A6C9D"/>
<path transform="translate(212,808)" d="m0 0 1 3-7 10-10 16-17 25-5 7h-2l2-5 1-2h2l1-5 4-5 8-16 7-11h2l2-6 8-9z" fill="#1171A0"/>
<path transform="translate(255,273)" d="m0 0 2 1-8 9v7l-2 5-6 2-2 4-3 7-10 2v-2l-3-1 4-5 4-1 2-4 4-1 1-5 4-2-1-2 4-5 8-7z" fill="#1C3240"/>
<path transform="translate(1113,1134)" d="m0 0h1l-1 16-1 15-1 7 5 2 5 5-12 9h-3l-3-7 5-17z" fill="#07212D"/>
<path transform="translate(742,1555)" d="m0 0h20l16 1h67l27-1h17v1l-36 3h-61l-23-1-8-1-19-1z" fill="#0B6D9E"/>
<path transform="translate(448,1426)" d="m0 0h9v2l-7 3-7 2-8 2-11 3h-11l-2-1v-3l7-3z" fill="#0E6F9E"/>
<path transform="translate(1532,587)" d="m0 0 4 1 5 25 3 14 1 5 3 1v16l-2-2-2 4-3-14v-7l-5-15z" fill="#1A3A4D"/>
<path transform="translate(1067,1217)" d="m0 0 9 1v3h-2l-1 3-14 10-7 4h-4v-5-3z" fill="#DBEEF5"/>
<path transform="translate(1557,892)" d="m0 0h1l1 18 1 1v18l-1 2h-2l-1 9-3 3-1-2-1 28-2 4-4 1 4-26 3-27h2l2 9 1-5z" fill="#DBEEF5"/>
<path transform="translate(322,622)" d="m0 0 3 1 3 3v8h-1l1 8v9l-2 16h-1l-1-20-2-3-6 1-1-5v-7h3l3-5-3-1 2-4z" fill="#041520"/>
<path transform="translate(965,53)" d="m0 0 4 3-3 2 18 2 11 5 6 1v-2h2v2h11l5 3 9 3v1l-10-1-2 1h-7l-14-3-1-2-4-2h-7l-5-2v-2l-6-1-11-3 4-1z" fill="#1A2C39"/>
<path transform="translate(439,945)" d="m0 0 6 2 1 4-3 7-2 7-7 3-8-5-1-4h2l2-5 7-2 2 1z" fill="#041319"/>
<path transform="translate(220,611)" d="m0 0 1 4v7l-1 5v12l-3 44-1 57h-1v-83l1-14v-19z" fill="#1A2934"/>
<path transform="translate(972,1275)" d="m0 0h4v2l-22 13-26 15-15 8-3-1h2l2-4 20-12 15-7 10-6 6-1 2-4z" fill="#10709F"/>
<path transform="translate(751,1480)" d="m0 0h23v1l-22 1-36 4-12 1h-45l-4-3 5-2h5l1 1 10 1h21l33-2z" fill="#0B6C9D"/>
<path transform="translate(735,1014)" d="m0 0h7l8 7 1 4 5 7 1 4-3 6-3-4-7-11-8-6-6-3 1-3z" fill="#061C29"/>
<path transform="translate(179,367)" d="m0 0 1 2-3 5-2 2-3 9-6 9-2 8-5 5-6 8h-5l4-8 12-20 12-16z" fill="#193A4D"/>
<path transform="translate(49,711)" d="m0 0h1v51l5-3 3 2-2 5-6 3-5 1-1-1 1-9z" fill="#1A2F3D"/>
<path transform="translate(876,1387)" d="m0 0 3 1-5 6-16 8-10 4h-7l4-5 21-11z" fill="#F4FEFF"/>
<path transform="translate(1177,130)" d="m0 0h2l1 2 10 1 4 3 4 10 2 3-16-4-3-3 1-5h-2l-1 2v-2l-5-1-5-4h7z" fill="#DBEEF5"/>
<path transform="translate(727,1093)" d="m0 0 5 1 11 9 25 16 1 2-5-2-11-6-16-8-11-2-7 1h-3z" fill="#0A6C9D"/>
<path transform="translate(416,711)" d="m0 0 4 1 13 5 8 2 17 8 5 3 2 4-7-1-24-11-14-6-6-3z" fill="#F0F7F9"/>
<path transform="translate(1316,238)" d="m0 0 8 6 17 16 9 10 2 3-1 3-4-2-28-28v-2l-3-1z" fill="#071F2D"/>
<path transform="translate(1024,1426)" d="m0 0 2 1-13 7h-2v2l15 1v1l-20 4-7 2h-8v-4l14-7 17-6z" fill="#3D8EAF"/>
<path transform="translate(633,1424)" d="m0 0h4l-1 4-11 4-24 5-11 1v-2l-4-1z" fill="#F6FAFB"/>
<path transform="translate(904,45)" d="m0 0 24 2 16 4v1l-8 2h-26l-4-4v-4z" fill="#1B2731"/>
<path transform="translate(662,1543)" d="m0 0 14 2 19 4 47 6 19 1 8 1 23 1v1h-35l-65-8-17-3-8-2-10-1v-1z" fill="#227CA5"/>
<path transform="translate(1373,296)" d="m0 0 7 6 2 6 3-1 2 7 2 4 11 9v2l-9-3-3-2 1-3-3-3v-2l-4-1-5-5-5-3-4-6 2-1v-3z" fill="#1A2833"/>
<path transform="translate(1165,131)" d="m0 0 6 2 4 3 7 1v5l5 3 10 2 6 5-3 3-4-1-7-3v-3h-3v-2l-8-2-9-2v-4l-5-3z" fill="#163A4F"/>
<path transform="translate(56,914)" d="m0 0 2 3 6 18 3 16 2 10v15l-2-4-8-36-3-18z" fill="#2188B4"/>
<path transform="translate(304,713)" d="m0 0h2l-2 4-26 39-1-4 6-13 4-8 5-5 1-2h2l1-4z" fill="#157FAE"/>
<path transform="translate(997,1534)" d="m0 0h3v11l-16-1-9-1-2-2 7-3z" fill="#F9FBFC"/>
<path transform="translate(199,1056)" d="m0 0h3l-1 6-5 6h-2v2h-2l-1 3-6 5-4 6-1-2 2-3 1-7 3-3 2-9 3-1 4-1z" fill="#DBEEF5"/>
<path transform="translate(1468,465)" d="m0 0 5 5 2 3-2 1 6 7v2l5 1 3-1-1 3-4 1 4 3v3l-6-2-5-5-6-8-3-3v-2l-4-2-1-4 6 3z" fill="#041520"/>
<path transform="translate(286,962)" d="m0 0h1l3 10 5 7-1 2-2-2-13 1h-2v2h-2l-2 4-8 9-2-1 8-10 11-14z" fill="#0D6E9E"/>
<path transform="translate(88,536)" d="m0 0h1l1 7-3 10-3 8-3 16-2 3h-2l-1 5-1-4 3-17 9-26z" fill="#0F6F9E"/>
<path transform="translate(1103,1074)" d="m0 0 3 1-3 1v2l-5 5-2 3h-2v2l-8 4-6 2v2l-9 5-10 8-3 2-3-1 14-11 16-12z" fill="#0E6F9F"/>
<path transform="translate(230,844)" d="m0 0h1l2 23 7 15 6 16 2 9-2-1-4-9-2-5h-2v-4h-2l-2-6-1-6-3-1-1-7z" fill="#187CA9"/>
<path transform="translate(139,429)" d="m0 0 1 2-3 17-3 5-5 5-4 6h-3l1-5 10-21z" fill="#1B2D39"/>
<path transform="translate(1376,298)" d="m0 0 5 3h5l2 5 5 1v3h-2l5 5h1l2 11-4-2-7-6-3-5-1-5h-2l-2-5-4-3z" fill="#DBEDF4"/>
<path transform="translate(231,849)" d="m0 0 2 3 7 25 10 29 1 9 4 2 6 2v1h-10l-5-19-10-26-4-8-1-7z" fill="#0A6C9D"/>
<path transform="translate(413,727)" d="m0 0 5 1 10 5 18 10-2 3 4 4-5-2-5-3v2l-5-1-2-3 2-1-1-3-5-3-6-1-2-2-3-2-3 1-5-2 4-2z" fill="#041520"/>
<path transform="translate(916,1315)" d="m0 0h7l-5 5-22 11h-5l4-5 11-7v-3l5 1z" fill="#F3FDFE"/>
<path transform="translate(327,206)" d="m0 0 2 1-4 6-4 2-3 5h-2l-2 4-4 2-2 4-7 3-6 1 5-6 1 2h2l1-4 4-4 1-2 4-2 4-5h2l2-4 2-2z" fill="#1D78A4"/>
<path transform="translate(1557,652)" d="m0 0h1v42l-1 11-3-2-1-4-1-17h2z" fill="#1573A1"/>
<path transform="translate(279,250)" d="m0 0 2 1v3h-3l-1 4-6 5-1 2h-2v2l-8 7-8 10-2-1 1-4 8-9 7-8 10-10z" fill="#0E2633"/>
<path transform="translate(811,1151)" d="m0 0 5 1 3 2v9l-3 6-5 1-2-6v-10z" fill="#4592B1"/>
<path transform="translate(1511,1073)" d="m0 0 1 3-1 10-3 3-2-1v2h2l-1 6-6 11-2 2 1-12 4-1v-2l-2-1 3-1-1-12h2l2-4 3-1z" fill="#192B38"/>
<path transform="translate(351,1304)" d="m0 0 3 2v14l4 5 2 1v3l-6-2-2 2-5-5-1-7 2-8 2 1z" fill="#FCFDFD"/>
<path transform="translate(1547,949)" d="m0 0h2l-1 12-2 11-4 11h-1v-19l2-11z" fill="#17384B"/>
<path transform="translate(497,103)" d="m0 0h2v2l-6 3-1 3-7 2h-6l-4 1-1 5-3 1v2l-7 2-6-1 3-3 7-3 10-6z" fill="#0B6C9D"/>
<path transform="translate(1080,1507)" d="m0 0 2 2h-4v6l-4 3-10 2-10 5-4-1 4-5 1 4v-6l11-1v-3l5-2 2-2z" fill="#DBEEF5"/>
<path transform="translate(206,1211)" d="m0 0m-6 1h6v3l-19 11-4 1-4-3v-3l7-1 7-5z" fill="#0F6F9F"/>
<path transform="translate(287,262)" d="m0 0 1 2-5 7-3 5-10 7-11 6h3v3l-7 1 2 3-1 3-1-2-5-2-1-1v-5l2-2 9-2 10-6 7-3z" fill="#051621"/>
<path transform="translate(965,38)" d="m0 0h2v13l3-1 2 2h5l10 8-3 1-18-3 1-2-1-2-1 3h-5l3-2 1-3z" fill="#CCE5EE"/>
<path transform="translate(893,1230)" d="m0 0 2 1-18 14-3 3-28 16-5 4h-3v-2l24-15 18-12z" fill="#10709F"/>
<path transform="translate(1556,898)" d="m0 0h1l1 27-2 6h-1l-1-10h-2l-1 17h-1v-10l2-20z" fill="#15658D"/>
<path transform="translate(652,1485)" d="m0 0 7 1h45l12-1h10v1l-29 3-41 1-2-2-6-1z" fill="#1B2934"/>
<path transform="translate(515,1176)" d="m0 0h3l-1 3-32 22-4 3-3-1 5-2 1-5 4-1v-2l9-6 7-4h4v-2z" fill="#0F70A0"/>
<path transform="translate(1466,1167)" d="m0 0 3 1v5l-4 2v2l-4 4-4 11-6 10-4 2 2-5 4-9 2-6 4-6 2-5 2-4z" fill="#1A303F"/>
<path transform="translate(391,1259)" d="m0 0 9 2-2 4-10 6-11 4-3-1 6-5 6-4 1-4z" fill="#DBEEF5"/>
<path transform="translate(318,652)" d="m0 0 3 1 1 22 1 4v7l-2 2-4-20-2-7-1-3h-3l2-4z" fill="#0C6E9F"/>
<path transform="translate(868,41)" d="m0 0 15 1 21 3v1h-7l-3 3-20-2-5-1 1-3z" fill="#082333"/>
<path transform="translate(1270,200)" d="m0 0 5 3 6 5 4 4 14 10 2 3-6 1-6-3-2-4-6-5-3-2-3-5-5-5z" fill="#193140"/>
<path transform="translate(248,794)" d="m0 0h2l-2 4-13 18-5 2-1 2-1 17h-1l-1-5v-9l1-7 3-6 7-3 4-4h2v-3h2l1-4z" fill="#156991"/>
<path transform="translate(906,1466)" d="m0 0h10l-2 2-14 5-11 1h-14l2-2 6-2z" fill="#05141B"/>
<path transform="translate(430,137)" d="m0 0 2 1-8 6v2l-9 6-9 2-1 2-6 2-3 2-3-1 15-10z" fill="#183344"/>
<path transform="translate(654,1060)" d="m0 0h2l-2 4-11 11-8 7-11 10-4 1 3-6 11-9 4-2v-2h2l2-4 3-3h2v-2l5-1v-2h2z" fill="#1171A0"/>
<path transform="translate(317,647)" d="m0 0h5l2 4v35h-1l-2-11-1-22-7 2-2 1 2-5z" fill="#1B2731"/>
<path transform="translate(1422,330)" d="m0 0h1v23h13l1 2-12 2-4 1-1 2-4-8 1-2h2l2-17z" fill="#D4E9F1"/>
<path transform="translate(809,1136)" d="m0 0 11 2-1 5-3 3 5 1-1 3-9-3-11-7-3-3 10 3z" fill="#061D28"/>
<path transform="translate(258,784)" d="m0 0 2 4-1 5-7 8-9 7-3 4-2-1 10-14z" fill="#081F29"/>
<path transform="translate(1320,259)" d="m0 0 5 2 6 5 4 1 2-1 4 4h-2v2h2v2h2v2h2l2 4-1 3-3-1-7-8-11-8-5-4z" fill="#041520"/>
<path transform="translate(1102,1397)" d="m0 0h6l-1 3-21 11-4-1 6-7z" fill="#F0FBFD"/>
<path transform="translate(1305,1368)" d="m0 0 4 1-11 11-6 2-1 4-7 2 3-5 2-1v-6l9-4z" fill="#1B2731"/>
<path transform="translate(814,1148)" d="m0 0 6 2 3 3-1 20-2 23-1 7v8l2 2v3l-4 1-1-4 1-16 4-37v-6l-7-5z" fill="#1B2731"/>
<path transform="translate(105,501)" d="m0 0v3l-3 7-1 8-8 17h-2l-1 6h-1v-8l12-27 3-5z" fill="#1B3545"/>
<path transform="translate(1450,1202)" d="m0 0v3l-3 3-1 6 3-8 8 1 1 2-6 1 1 4-2 4-11 1-1-4 4-6h2l2-5z" fill="#D9ECF4"/>
<path transform="translate(1469,1168)" d="m0 0 1 2 6 2 2 2-6 3-2 11h-4l-2-8-2-2 3-1-1-3 5-1z" fill="#DBEEF5"/>
<path transform="translate(238,815)" d="m0 0 4 1 1 4-2 13-2 3h-2l-3-9 2-10z" fill="#041319"/>
<path transform="translate(77,564)" d="m0 0 1 4-2 13-2 8h-4l-1 10-2 1 1-16 3-8 4-7z" fill="#DDEFF5"/>
<path transform="translate(694,338)" d="m0 0v3l-2 5-3 3 1 4v1h2v4l-7 1-1 2-2-3 1-7 4-8h2l1-3z" fill="#041520"/>
<path transform="translate(558,1145)" d="m0 0h3l-2 6-3 6-11 6h-5l6-8 10-8z" fill="#F8FBFC"/>
<path transform="translate(1044,1519)" d="m0 0h2l3 6-5 3-3 3-5-1h-4v5l-2 1-2-7-4-2h8v-3h5l1-2h5z" fill="#DBEEF5"/>
<path transform="translate(553,935)" d="m0 0h30l-2 3-10 1h-20l-8-2v-1z" fill="#FDFDFD"/>
<path transform="translate(466,298)" d="m0 0 7 1v2l-11 2-18 3h-17v-3l3-2 8 1 1 1h8l15-3z" fill="#0A6C9D"/>
<path transform="translate(1481,460)" d="m0 0 5 3 8 16v7l-3-1-4-7-3-8-3-2z" fill="#153F56"/>
<path transform="translate(1050,81)" d="m0 0 6 1 8 2 13 5-1 3-7-2-14-1-3-2 1-2-3-1z" fill="#163140"/>
<path transform="translate(1357,1325)" d="m0 0 9 1 2 2-9 3-4 9h-2v6h-2l-2-5-1-1 1-9h2v8l3-3 1-9z" fill="#DBEEF5"/>
<path transform="translate(396,700)" d="m0 0 6 2 18 8 17 7-4 1-13-5-4-1-6-1-13-6z" fill="#EFFAFC"/>
<path transform="translate(610,1533)" d="m0 0h9l28 7 15 3v1h-12l-40-10z" fill="#1E78A3"/>
<path transform="translate(1094,1387)" d="m0 0 3 1-9 10-10 6-6 1 4-6 12-8z" fill="#F1FBFD"/>
<path transform="translate(1223,1271)" d="m0 0 1 2h7l-1 5-8 8h-3l-1-6-2 1 2-4z" fill="#DBEEF5"/>
<path transform="translate(388,1398)" d="m0 0m-8 0 11 2v1l-22 3h-15l-5-2 1-3 11 2h7z" fill="#1575A3"/>
<path transform="translate(822,1137)" d="m0 0 3 1 1 4 2 1-1 6-3 4-4-2v-3l-4-1v-3l3-3v-2z" fill="#041319"/>
<path transform="translate(201,979)" d="m0 0 1 3-9 11-10 14h-2l2-7 7-10 4-6z" fill="#1071A0"/>
<path transform="translate(812,38)" d="m0 0h28l-5 4h-18l-15-1v-2z" fill="#0A6C9D"/>
<path transform="translate(131,1175)" d="m0 0 4 5 8 14 10 14 8 16-1 2-1-4h-2l-1-5h-2l-6-12-8-11-8-12z" fill="#F4FEFF"/>
<path transform="translate(864,827)" d="m0 0 5 5-1 4-7 1-2-1 1 3-3 3h-6v-2h2l2-7 6-2z" fill="#051621"/>
<path transform="translate(927,190)" d="m0 0 7 1 13 7 8 5-1 2-5-2-13-6-14-4v-2z" fill="#DAEDF4"/>
<path transform="translate(1398,1273)" d="m0 0h1v12l-1 4-11 4-4 2 5-9h4l1-6 3-1 1-2-2-1z" fill="#DBEEF5"/>
<path transform="translate(190,1022)" d="m0 0 9 1 4 4 6 12 4 1-1 2-6-2-2 1-6-12-7-2-2-4z" fill="#FDFDFD"/>
<path transform="translate(216,742)" d="m0 0h1l4 33v9l4 1v2l4-1-2 4h-3l-2-1v2h-2l-1-2-3-35z" fill="#1B2731"/>
<path transform="translate(1440,362)" d="m0 0h2v8l2 9-1 4 2 4-1 3-5-6-1-6-2 3-1-3 2-5 2-10z" fill="#DBEEF5"/>
<path transform="translate(510,244)" d="m0 0 2 1-1 2 13 2 25 1v1l-25 1h-17l-4-1v-2z" fill="#1B2C38"/>
<path transform="translate(513,1371)" d="m0 0m-7 1h7l-1 3-26 7h-5l1-2 18-7z" fill="#1272A1"/>
<path transform="translate(550,80)" d="m0 0 2 2 5-1 4-1-3 3-3 5-4 1-20 1 3-2 10-4 5-1z" fill="#144C68"/>
<path transform="translate(1231,1249)" d="m0 0h8l2 3-6 6-4-2-1-1h-16l3-2z" fill="#1A2A37"/>
<path transform="translate(1557,705)" d="m0 0h1l2 18 1 5v27l-1 22-2 1v-15l1-11v-20l-1-1-1-11z" fill="#1B2731"/>
<path transform="translate(1214,159)" d="m0 0 5 2 11 7 2 3h-3l-8 2-3-5-3-2z" fill="#1A2C38"/>
<path transform="translate(869,842)" d="m0 0h7l1 2-5 1v3h-2l-1 3-10 4-4 2-2-5h3l5-2 2-1 1-3h2l1-3z" fill="#051621"/>
<path transform="translate(1464,1068)" d="m0 0h2l-1 10h-2l-1 5-5 2-4-1v-3h-2l-2-4 1-4v2l5 1 2 3h3l2-6-1-2z" fill="#041520"/>
<path transform="translate(1494,486)" d="m0 0 4 1 3 7 4 5-1 3 2 1v2h-3l-1 3-5-6-1-9-2-4z" fill="#184E6A"/>
<path transform="translate(517,240)" d="m0 0 2 1-1 3 7 4h23l1-1h9l-3 2-3 1h-28l-13-2v-3l4-4z" fill="#06212E"/>
<path transform="translate(52,879)" d="m0 0 4 5 3 14-1 7-2 1-3-9-1-6z" fill="#0C6E9E"/>
<path transform="translate(822,1193)" d="m0 0h1l1 7h3v-3l6 5-2 6-4 1v-2l-4-1-2-1-1-7z" fill="#051723"/>
<path transform="translate(1e3 52)" d="m0 0 2 1 1 6 7 1 1-2 5 8-1 2-1-1-11-1v-2h-2v2h-6v-1h5z" fill="#DBEEF5"/>
<path transform="translate(243,284)" d="m0 0h1l-1 10-1 2-4 1-3 6-5 3-3 2-4-1 4-5 4-1 2-4 4-1 1-5 4-2-1-2z" fill="#1271A0"/>
<path transform="translate(1152,1474)" d="m0 0 2 1-2 2 1 1 13 2 2 2-1 1-17 1v7h-2l-2-10-2-2 4 1h4l-3-1 2-4z" fill="#DAEDF4"/>
<path transform="translate(1529,566)" d="m0 0 4 2 3 16 1 8-5-5-2-3-2-13h2z" fill="#E7F3F7"/>
<path transform="translate(904,45)" d="m0 0 24 2 5 1-3 3-10 1-9-2-3-1-1-2z" fill="#0B6D9D"/>
<path transform="translate(1228,1428)" d="m0 0 4 2-4 4-8 1v2l2 1-6 3h-2v-6l4-1v-3l3-2z" fill="#183D53"/>
<path transform="translate(311,660)" d="m0 0 3 3v12l-2 1h-6l-1-5z" fill="#DBEEF5"/>
<path transform="translate(744,407)" d="m0 0 2 1 3 2 3 3 1 3-2 2 1 3-5-1-2-1v-3l-2-1-4-1 1-4 4-1z" fill="#041520"/>
<path transform="translate(43,930)" d="m0 0 3 4 5 9 1 4v22h-1l-2-17-3-9-3-10z" fill="#F4FEFF"/>
<path transform="translate(1523,560)" d="m0 0 5 5 2 3v3h-2l2 8-1 3v-2h-3l-3-6z" fill="#193242"/>
<path transform="translate(1395,1274)" d="m0 0 2 1-1 5h-3l-1 6-4 1-3 6-5 4 1-8 1-2 5-1 2-6 5-5z" fill="#1573A0"/>
<path transform="translate(247,758)" d="m0 0 2 1-13 24-7 11-3 5-4-1 6-7 6-11 9-16z" fill="#1780AF"/>
<path transform="translate(458,303)" d="m0 0 4 1-15 4-25 1-1-2 3-2h20z" fill="#1A2A35"/>
<path transform="translate(1160,1396)" d="m0 0h10l2 4-1 7h-5l-1-6 3-1v-3l-6 2-7 4v2l-3-1 1-4z" fill="#041520"/>
<path transform="translate(585,1123)" d="m0 0 2 1v2l2 3-5 6-5 3-4-1v-3h2v-2l4-3v-3z" fill="#DBEEF5"/>
<path transform="translate(1043,1518)" d="m0 0 4 1-3 2-1 2-5-1-1 3h-5l3 1 2 1-1 1-15-1 5-4 1-1 7-1 4-2z" fill="#1B3C4E"/>
<path transform="translate(103,789)" d="m0 0h2v8l-12 18-1-3 3-9 5-8z" fill="#F6FBFC"/>
<path transform="translate(774,1384)" d="m0 0 2 1-3 3-15 6h-5l1-3 7-4z" fill="#F4FEFF"/>
<path transform="translate(1107,1168)" d="m0 0 1 4v5l2 1v2l4 1-1 4-4 3h-3l-3-7z" fill="#1A2A36"/>
<path transform="translate(1053,1112)" d="m0 0 2 1-10 9-17 13h-2v2l-10 7-4 3-3-1 19-14 14-11z" fill="#1272A0"/>
<path transform="translate(1520,1060)" d="m0 0 1 4-4 10-2 7-4 4v-9l3-9h2l2-4z" fill="#DBEEF5"/>
<path transform="translate(872,1555)" d="m0 0h17v1l-36 3h-14l6-3z" fill="#2880A8"/>
<path transform="translate(1438,374)" d="m0 0h1l1 10 5 6v2h-2l-1 2-7-5-1-7 1-4h2z" fill="#1C3240"/>
<path transform="translate(732,1555)" d="m0 0 29 1 8 1 23 1v1h-35l-25-3z" fill="#4391B1"/>
<path transform="translate(48,722)" d="m0 0h1v17l-1 29 2 1-5 1-1-1 1-9z" fill="#237DA6"/>
<path transform="translate(465,301)" d="m0 0h8l3 11v3h2l2 11v5l-3-1-2-6-2-13-2-6-1-2-5-1z" fill="#102937"/>
<path transform="translate(120,777)" d="m0 0 1 2-4 7h-2l-2 6-2 3-5 3-2-1 12-18z" fill="#1779A7"/>
<path transform="translate(741,1079)" d="m0 0 2 1-7 7 2 9 5 5 2 3-5-2-9-8-3-1 2-4z" fill="#193140"/>
<path transform="translate(1118,1491)" d="m0 0h5l-3 2-4 1-1 3-5 2h-8l-1 5h-1l1-8 9-3z" fill="#1875A2"/>
<path transform="translate(1427,1238)" d="m0 0h2v2l-6 2-7 10-6 7-2-3 2-5 10-9 3-3z" fill="#193140"/>
<path transform="translate(833,39)" d="m0 0h20l10 1v1l-11 2h-17l1-2z" fill="#1A313F"/>
<path transform="translate(691,1405)" d="m0 0h3l-1 3-23 7-4-1 4-3z" fill="#1071A0"/>
<path transform="translate(1458,648)" d="m0 0 5 1 3 8v6l-3 1-1 2-4-15z" fill="#071F2D"/>
<path transform="translate(1503,508)" d="m0 0 3 4h5l1 10-3 3-3-1-2-5z" fill="#1A2D39"/>
<path transform="translate(511,97)" d="m0 0h2l-2 6-3 3-8 2-4-2 3-1v-3z" fill="#143D54"/>
<path transform="translate(836,1537)" d="m0 0m-6 1h6v3h-36l-2-2z" fill="#051621"/>
<path transform="translate(301,632)" d="m0 0 3 1-2 1 1 4-5 9h-3l-2-4 1-4 5-4z" fill="#051621"/>
<path transform="translate(1463,421)" d="m0 0 4 5 8 15-1 3h-2l-4-8-5-8-1-4z" fill="#1C76A2"/>
<path transform="translate(562,1439)" d="m0 0h7v2l-7 3h-7l-3 2h-6l3-3-2-2z" fill="#EDF9FC"/>
<path transform="translate(1091,1413)" d="m0 0 6 1-3 1v2l-13 4h-2v2h-5v-3l6-2 4-4z" fill="#041520"/>
<path transform="translate(505,899)" d="m0 0 4 1 3 9v11l-2 2h-2v-11l-3-9z" fill="#04151F"/>
<path transform="translate(304,716)" d="m0 0 1 3 1 5-5 1-1 2h-2l-1 5-3 5-5 5-2-1z" fill="#091F2A"/>
<path transform="translate(1546,620)" d="m0 0 2 2 1 9 1 1v11l-1 7h-1l-1-16-3-5-1-5h2z" fill="#DBEEF5"/>
<path transform="translate(135,435)" d="m0 0h1v9l-2 6-4 1v2h-3l-1 3-1-2z" fill="#10709F"/>
<path transform="translate(1373,296)" d="m0 0 7 6 2 6 3-1 1 7-4-1-3-5-5-5-4-6z" fill="#0F6F9E"/>
<path transform="translate(898,1129)" d="m0 0 2 1-5 5 1 2h-3l-1 3-6 2-4 3-4-3 19-12z" fill="#E5F3F7"/>
<path transform="translate(1532,587)" d="m0 0 4 1 3 15-1 8h-2z" fill="#14729F"/>
<path transform="translate(117,471)" d="m0 0h1v9l-2 5-8 7-1-2z" fill="#11709F"/>
<path transform="translate(1501,499)" d="m0 0 3 2 2-2 4 11 2 1 2 4-1 7-2-3v-7l-5 1-3-5v-3h3v-2l-4-1z" fill="#DDEEF5"/>
<path transform="translate(1285,196)" d="m0 0h1v10l12 1v1l-8 2-1 3-5-1-3-2 3-9z" fill="#CBE4EE"/>
<path transform="translate(1142,1268)" d="m0 0 1 2 2 1-4 1 1 2 8-1v2h-2v3h-11l-1-4 3-5z" fill="#04141A"/>
<path transform="translate(1484,1144)" d="m0 0 4 5 1 2v12l-4-4-4-7 2-5z" fill="#DBEEF5"/>
<path transform="translate(742,1080)" d="m0 0 1 4-3 10 3 7-4-2-3-5-1-7z" fill="#041D28"/>
<path transform="translate(1167,1467)" d="m0 0 7 2-1 4-12 2-6-1 4-3z" fill="#D9ECF4"/>
<path transform="translate(1429,1234)" d="m0 0 9 2v4l-6 3-4-1h-5l4-2h2v-2l-3 2-3-1 2-2z" fill="#DBEEF5"/>
<path transform="translate(235,815)" d="m0 0v3l-3 8-2 3v15l-2-4v-20l2-3z" fill="#092B3A"/>
<path transform="translate(1513,533)" d="m0 0 5 2 4 11v8h-3l-5-18z" fill="#186F98"/>
<path transform="translate(818,311)" d="m0 0h11l9 3 6 3 3 3-11-2-1-2-10-1-7-3z" fill="#051621"/>
<path transform="translate(241,285)" d="m0 0 2 4-4 2-2 5-4 2-3 5-3-2 6-10z" fill="#DBEEF5"/>
<path transform="translate(972,1275)" d="m0 0h4v2l-22 13-3 1 2-4 6-4 6-1 2-4z" fill="#1071A0"/>
<path transform="translate(1243,179)" d="m0 0 4 2 9 6-2 1v2h-8l-2-2z" fill="#192B38"/>
<path transform="translate(1505,1088)" d="m0 0 1 2h2l-1 6-6 11-2 2 1-12 4-1v-2l-2-1 3-1z" fill="#287FA9"/>
<path transform="translate(965,53)" d="m0 0 4 3-3 2 18 2 6 3v1h-7l-19-5-3-2h4z" fill="#1875A2"/>
<path transform="translate(955,1541)" d="m0 0h11v1l16 3v1h-15l-12-1 2-2z" fill="#2B81A8"/>
<path transform="translate(815,1150)" d="m0 0 5 2 2 2-1 15-2 19h-2l1-15 2-19-5-2z" fill="#0A6C9D"/>
<path transform="translate(823,1153)" d="m0 0h1l1 15-2 7-1 14-1 11-2 1 2-28z" fill="#041D28"/>
<path transform="translate(499,889)" d="m0 0h1l1 15 5 6-3 2-3 1-3-6 1-11z" fill="#051621"/>
<path transform="translate(1015,1527)" d="m0 0h6l-3 2-7 6h-8l-2 3-1-4 2-3 12-3z" fill="#126791"/>
<path transform="translate(1069,1510)" d="m0 0 3 1-3 4-1-2v3l-2 1h-11v6l-2-1-1-5 4-1 1-3z" fill="#1E79A3"/>
<path transform="translate(1537,995)" d="m0 0 2 4v13h-1l-1-8h-3v15l-2-2-1-8 5-12z" fill="#217BA5"/>
<path transform="translate(623,899)" d="m0 0h11l-1 4h-20v-2z" fill="#F4FDFE"/>
<path transform="translate(1052,1300)" d="m0 0v3l-9 6-13 8-4 1v-2l24-15z" fill="#1171A0"/>
<path transform="translate(1561,841)" d="m0 0h3v29l-2-2-1-18-1-1z" fill="#4592B1"/>
<path transform="translate(88,536)" d="m0 0h1l1 7-3 10-3 8h-1l1-15z" fill="#0E6F9E"/>
<path transform="translate(238,296)" d="m0 0h3l-1 4-4 8-10 2-1-3 4-1 3-3 3-1z" fill="#1B2731"/>
<path transform="translate(497,103)" d="m0 0h2v2l-6 3-1 3-7 2-7-1 4-3z" fill="#227BA6"/>
<path transform="translate(980,1536)" d="m0 0h7l-3 2-14 3h-14v-1l14-3z" fill="#0F3042"/>
<path transform="translate(1457,1185)" d="m0 0h2l-1 5-6 11-5 3 2-5 6-13z" fill="#12719F"/>
<path transform="translate(344,1359)" d="m0 0h6v2l-17 9h-3l1-3 8-5z" fill="#ECF9FB"/>
<path transform="translate(248,794)" d="m0 0h2l-2 4-6 8-5 4-4 4-4 1 1-5 7-3 4-4h2v-3h2l1-4z" fill="#1379A7"/>
<path transform="translate(782,55)" d="m0 0 11 1v1l-22 3h-9v-2z" fill="#041319"/>
<path transform="translate(548,901)" d="m0 0h12l14 2-2 2h-15v-1l-9-2z" fill="#F4FEFF"/>
<path transform="translate(318,643)" d="m0 0 5 1 2 3v21h-1l-1-17-1-3h-5l-5 5 1-4z" fill="#041D28"/>
<path transform="translate(1029,73)" d="m0 0 9 2 8 3 1 2h-8l-7-1-3-4z" fill="#0B2838"/>
<path transform="translate(1e3 64)" d="m0 0h2v2h11l5 4-5 1-12-2-6-2v-1h5z" fill="#1875A1"/>
<path transform="translate(732,1483)" d="m0 0h7l-2 1v2l-14 2-19 1 4-2 18-1v-2z" fill="#041D28"/>
<path transform="translate(1419,1247)" d="m0 0 1 4 3 5v23l-2-3-1-21-4-4z" fill="#DBEEF5"/>
<path transform="translate(1108,1061)" d="m0 0 5 1 8 5 1 3v11l-1 5h-1l-1-15-7-7z" fill="#0B6D9D"/>
<path transform="translate(1185,1456)" d="m0 0 1 3-1 1 9 3v1l-6 2-2 2-2 4-1-9-4-2 5-3z" fill="#CEE6EF"/>
<path transform="translate(70,983)" d="m0 0 2 4 3 1v2l6 1-5 5-4-1-2-8z" fill="#2B8BB3"/>
<path transform="translate(1084,1411)" d="m0 0 2 1-7 8h-11l4-3z" fill="#0C2632"/>
<path transform="translate(1519,1049)" d="m0 0 4 1-1 7-3 6-3 4-2-1 2-4z" fill="#1371A0"/>
<path transform="translate(1556,652)" d="m0 0h1v11l-2 19-2 2-2-7v-8h1v6h2z" fill="#DBEEF5"/>
<path transform="translate(430,301)" d="m0 0 8 1 6 2v2h-17v-3z" fill="#0C6D9D"/>
<path transform="translate(856,1534)" d="m0 0 7 1 14-1 2 3-5 1h-12l-6-2z" fill="#041319"/>
<path transform="translate(467,1210)" d="m0 0h2v2l-19 13h-2l1-3 4-3h2v-2h3v-2l5-3z" fill="#1475A2"/>
<path transform="translate(292,688)" d="m0 0 1 2-7 12-3 1-2 5-5 8h-2l2-5 11-16z" fill="#0E72A2"/>
<path transform="translate(82,565)" d="m0 0h1v10l-7 17-2 1v-7l3-6 3-3z" fill="#1B2B37"/>
<path transform="translate(1014,1527)" d="m0 0m-2 0 2 2-9 2h-3l-1 3-12 2 1-3h5l6-4z" fill="#172B39"/>
<path transform="translate(1044,1519)" d="m0 0h2l3 6-5 3-3 3-5-2 2-3 3-1z" fill="#AED2E1"/>
<path transform="translate(1280,1387)" d="m0 0 4 1-1 2-8 6-5 5h-2l1-5 8-6z" fill="#173E53"/>
<path transform="translate(243,886)" d="m0 0 1 2h2l3 9 2 5 2 13h-2l-4-15-4-11z" fill="#0D212B"/>
<path transform="translate(911,42)" d="m0 0 12 2 4 3h-14l-5-1 2-1z" fill="#DCEEF4"/>
<path transform="translate(947,1362)" d="m0 0 3 1-2 2h-3v2l-9 5-8 4h-2v-2z" fill="#10709F"/>
<path transform="translate(533,1162)" d="m0 0h3l-2 4-11 8h-2l2-4 8-7z" fill="#1172A1"/>
<path transform="translate(1083,1430)" d="m0 0 4 2-2 4-7 3-2-4 2-3h5z" fill="#051621"/>
<path transform="translate(985,1165)" d="m0 0 2 1-13 11-13 9v-3l19-14z" fill="#1372A0"/>
<path transform="translate(350,1399)" d="m0 0 11 2h8v3h-15l-5-2z" fill="#1977A4"/>
<path transform="translate(1110,1261)" d="m0 0 2 1-2 3 8 5 6 3-2 1-18-7 5-5z" fill="#172B38"/>
<path transform="translate(1076,1094)" d="m0 0m-2 1 2 1-5 5-10 8-3 2-3-1 14-11z" fill="#1171A0"/>
<path transform="translate(676,1020)" d="m0 0h2l4 9h5l3-2v3l-7 6-7-14z" fill="#0C2735"/>
<path transform="translate(1563,703)" d="m0 0h1l2 20v8l-2-2-2-14v-9z" fill="#DBEEF5"/>
<path transform="translate(1452,620)" d="m0 0h3l2 5v8h-2l-1 2-3-11z" fill="#092332"/>
<path transform="translate(1169,134)" d="m0 0 5 1 6 2h2l-1 5h-7l-2-4-4-3z" fill="#1673A1"/>
<path transform="translate(924,1549)" d="m0 0h9v1l-32 4h-6l2-2 7-1z" fill="#1D6B90"/>
<path transform="translate(1184,1454)" d="m0 0 3 1-5 5-5 3-5-1 3-4z" fill="#183343"/>
<path transform="translate(520,1445)" d="m0 0h5v2l3 1-7 2-7-1-6-1v-1z" fill="#ECF9FC"/>
<path transform="translate(1241,1245)" d="m0 0 5 2-4 4-7-1h-8l3-2 5-2z" fill="#04212E"/>
<path transform="translate(46,736)" d="m0 0h1v15l-2 13-2 3 1-17z" fill="#DBEEF5"/>
<path transform="translate(1408,347)" d="m0 0h5l8 13-4 2-3-4 1-4h-2v-4l-4-1z" fill="#183445"/>
<path transform="translate(550,67)" d="m0 0h2v15l-5 2-2-1v-5l5 1z" fill="#DBEEF5"/>
<path transform="translate(931,49)" d="m0 0 10 1 3 2-8 2-10-1 1-2z" fill="#1C3240"/>
<path transform="translate(617,931)" d="m0 0h14l6 5 3 6-2 3-6-10-3-2-12-1z" fill="#0D212B"/>
<path transform="translate(1467,442)" d="m0 0 3 1 6 9v2l-4-1-3-2-3-4z" fill="#04151E"/>
<path transform="translate(427,1238)" d="m0 0 2 1-1 2h-2l-2 4-5 3-6 1 1-3z" fill="#F3F8FA"/>
<path transform="translate(727,1092)" d="m0 0m-1 1m-1 1m-1 1m-1 1m-1 1m-1 1m-1 1m-1 1m-1 1m-1 1m-1 1m-2 1h2l-2 4-11 10-3-1 10-9z" fill="#1674A1"/>
<path transform="translate(163,954)" d="m0 0 1 3-10 11-1 3-5 3 2-5 10-13z" fill="#1D7FAB"/>
<path transform="translate(881,1558)" d="m0 0m-13 1h13l-3 3-25-1v-1z" fill="#FDFDFD"/>
<path transform="translate(734,1390)" d="m0 0h4l-1 3-12 4-4-1 6-4z" fill="#1171A0"/>
<path transform="translate(1387,316)" d="m0 0 7 6 6 5v2l-9-3-3-2 1-3-2-1z" fill="#183E52"/>
<path transform="translate(1281,1392)" d="m0 0 2 2-8 5-4 6h-4l1-4 8-7z" fill="#F4F9FB"/>
<path transform="translate(1270,200)" d="m0 0 5 3 6 5 4 5-4 1-3-2-3-5-5-5z" fill="#193E54"/>
<path transform="translate(1165,131)" d="m0 0 6 2-1 2 4 5 1 3-7-2 1-3-5-3z" fill="#192A37"/>
<path transform="translate(791,1436)" d="m0 0 4 1-15 7-6 1 1-3z" fill="#10709F"/>
<path transform="translate(480,332)" d="m0 0h1l3 15v3h-2l-4-10z" fill="#0D2F41"/>
<path transform="translate(313,216)" d="m0 0v3l-4 1-2 5-3 2-1 3h-2v-5l4-5 7-3z" fill="#D2E8F1"/>
<path transform="translate(1214,159)" d="m0 0 5 2 8 5-3 3-5-3-4-1z" fill="#1E78A5"/>
<path transform="translate(1096,1500)" d="m0 0h3l1 9-2 1-6-3-1-4 3-1v3l2 1z" fill="#FDFDFD"/>
<path transform="translate(1050,1449)" d="m0 0 4 2h-2l-2 5-6 1v-5z" fill="#051621"/>
<path transform="translate(1113,1062)" d="m0 0 9 3 2 2v12l-2 2-1-11-1-3-7-4z" fill="#1B2731"/>
<path transform="translate(549,247)" d="m0 0h9l-3 2-3 1h-28l-1-2h25z" fill="#082634"/>
<path transform="translate(368,176)" d="m0 0 2 1-4 2-2 5h-2l-1 2-3 2h-5l4-4z" fill="#1B394B"/>
<path transform="translate(1097,98)" d="m0 0 6 2 5 2 1 4h-5l-7-4z" fill="#0C6D9D"/>
<path transform="translate(1037,1522)" d="m0 0v3h-5l3 1 2 1-1 1-15-1 4-2 5-2z" fill="#1C77A3"/>
<path transform="translate(1254,1415)" d="m0 0 1 2-8 6-7 1-2-2 4-2-1 3 6-3-3-2 6-2z" fill="#DBEEF5"/>
<path transform="translate(1170,1397)" d="m0 0 2 1-1 9h-5l-1-6 3-1v-2z" fill="#051621"/>
<path transform="translate(1296,947)" d="m0 0h5l-4 2v2l4 1 2 2-10 1-2-2 4-2-2-3z" fill="#051621"/>
<path transform="translate(92,740)" d="m0 0v3l-5 4-13 1 4-3 5-1z" fill="#F4FEFF"/>
<path transform="translate(1531,573)" d="m0 0 3 1 3 13v5l-5-5v-3z" fill="#CFE7F0"/>
<path transform="translate(753,40)" d="m0 0h8l-1 2-6-1v3h8v1h-11l-2-2-8-1v-1z" fill="#0A2C3F"/>
<path transform="translate(1528,1023)" d="m0 0 3 1-2 10-4 2-1-2 3-10z" fill="#0E6E9E"/>
<path transform="translate(674,916)" d="m0 0 2 2-2 10-3-1v-2h-2l1-5z" fill="#051621"/>
<path transform="translate(505,916)" d="m0 0h1l-1 7-3 3h-2v-8z" fill="#051621"/>
<path transform="translate(1557,705)" d="m0 0h1l2 18 1 10-3-2-1-11z" fill="#154D68"/>
<path transform="translate(368,689)" d="m0 0 9 3 7 5-2 1-16-7z" fill="#E3EFF4"/>
<path transform="translate(1056,1511)" d="m0 0h11v1l-10 2-3 3-7 1 2-3 3-1 1-2z" fill="#1A2A36"/>
<path transform="translate(345,1290)" d="m0 0 3 1-9 6-4 2-3-1 5-4z" fill="#DBEEF5"/>
<path transform="translate(1385,1286)" d="m0 0h2l-1 6-6 5 1-8 1-2z" fill="#0F6F9E"/>
<path transform="translate(182,853)" d="m0 0 1 3-9 13h-2l2-5 1-2h2l1-5z" fill="#1575A2"/>
<path transform="translate(330,675)" d="m0 0 6 1 4 4-2 2-8-3z" fill="#041520"/>
<path transform="translate(711,1398)" d="m0 0h3l-1 3-11 4h-5l1-2z" fill="#1373A1"/>
<path transform="translate(108,1088)" d="m0 0 9 2-4 5-4 1-2-4z" fill="#2883AC"/>
<path transform="translate(465,291)" d="m0 0 4 2 3 3-6 3h-3l1-5z" fill="#1885B4"/>
<path transform="translate(843,51)" d="m0 0 8 2 7 4-2 1-11-2-2-2z" fill="#051621"/>
<path transform="translate(1501,1094)" d="m0 0h3v2l-3 1-2 13-3 6-1-3 2-5v-8l3-5z" fill="#192C39"/>
<path transform="translate(1522,1038)" d="m0 0h1v12l-2 2-1-2-2 6h-1l1-8 2-2 1-7z" fill="#1B3B4D"/>
<path transform="translate(610,1533)" d="m0 0h9l9 2 1 3-11-2-8-2z" fill="#227BA5"/>
<path transform="translate(569,1439)" d="m0 0h19v1l-14 2-4 1h-2l-1 2-4-2 6-2z" fill="#FDFDFD"/>
<path transform="translate(741,1264)" d="m0 0m-2 1h2v3l-13 8v-3l3-3 6-2v-2z" fill="#1272A1"/>
<path transform="translate(825,1165)" d="m0 0 2 1v6l-2 5-1 8h-1l-1-10 2-9z" fill="#04151F"/>
<path transform="translate(445,981)" d="m0 0h2l-1 3h-2l-2 4-3 1-3-1 2-4z" fill="#051621"/>
<path transform="translate(1454,408)" d="m0 0 4 4 4 6-1 2-3-2-1-2h-2l-3-7z" fill="#173242"/>
<path transform="translate(150,1179)" d="m0 0 3 1 6 10v3l-3-1-6-11z" fill="#EBF8FB"/>
<path transform="translate(92,816)" d="m0 0v3l-7 11h-2l-2 4h-3z" fill="#1172A1"/>
<path transform="translate(304,716)" d="m0 0 1 3 1 5-5 1-1 2-3-1z" fill="#071E29"/>
<path transform="translate(842,1415)" d="m0 0 2 1-3 3-14 5h-2v-2z" fill="#1272A1"/>
<path transform="translate(1266,1403)" d="m0 0 1 2 6-2-1 4-7 2h-4v-2zm-7 6 2 1z" fill="#93C2D5"/>
<path transform="translate(1298,1374)" d="m0 0h5l-5 6-6 1 1-4z" fill="#0C6B9A"/>
<path transform="translate(1520,1071)" d="m0 0 5 1v4l-2 4h-2z" fill="#DBEEF5"/>
<path transform="translate(229,858)" d="m0 0h1v8l-2 3-5-1 4-7z" fill="#4592B1"/>
<path transform="translate(260,738)" d="m0 0 1 3-9 14-2 3h-2l2-4z" fill="#167BA9"/>
<path transform="translate(1424,1233)" d="m0 0 2 1-2 5-5 5-3 1 1-4h2l2-5h2z" fill="#192D3A"/>
<path transform="translate(458,967)" d="m0 0v3l-9 10-2-3 4-4h2l2-4z" fill="#051621"/>
<path transform="translate(162,880)" d="m0 0h2l-1 5-5 7-2-3 3-6z" fill="#1273A2"/>
<path transform="translate(1468,427)" d="m0 0 4 2 4-2-1 5-2 5-3-4z" fill="#DBEEF5"/>
<path transform="translate(1319,295)" d="m0 0 1 2h2l2 4 4 3v3h-5l-2-6v-3h-2z" fill="#051621"/>
<path transform="translate(471,115)" d="m0 0 1 2-8 7-6-1 3-3 7-3z" fill="#207AA4"/>
<path transform="translate(1050,81)" d="m0 0 5 1v3l5 2-1 2-7-1 1-3-3-1z" fill="#1C303E"/>
<path transform="translate(976,1452)" d="m0 0m-8 1h8v3l-2 1h-10z" fill="#05141B"/>
<path transform="translate(1385,1309)" d="m0 0h6l1 3-9 2-1-4z" fill="#DBEEF5"/>
<path transform="translate(972,1275)" d="m0 0h4v2l-11 6 1-4 3-3z" fill="#1172A1"/>
<path transform="translate(517,877)" d="m0 0 3 3 2 4v3h-3l-1 3-1-5z" fill="#F0FBFD"/>
<path transform="translate(83,549)" d="m0 0h1l-1 12-1 2h-2l-2 4 2-9z" fill="#2C86AC"/>
<path transform="translate(897,1562)" d="m0 0 15 1-4 2h-14v-2z" fill="#DBEEF5"/>
<path transform="translate(1256,1410)" d="m0 0 2 1-4 5-7 2v-3l6-4z" fill="#2A81A8"/>
<path transform="translate(1427,1238)" d="m0 0h2v2l-6 2-6 9-1-2 2-5 5-5z" fill="#1B77A2"/>
<path transform="translate(1436,1215)" d="m0 0h3l1 4-5 5-1-5z" fill="#10709F"/>
<path transform="translate(391,1065)" d="m0 0h10l-5 6-4-2z" fill="#0C2E3F"/>
<path transform="translate(619,934)" d="m0 0h10l-3 5h-4z" fill="#EEFAFC"/>
<path transform="translate(98,802)" d="m0 0 2 1-2 5-5 7-1-3 4-8z" fill="#EDF9FB"/>
<path transform="translate(1346,404)" d="m0 0h3v2l3 1 1 4 1 2 3 2h-2l-1 2-8-11z" fill="#082532"/>
<path transform="translate(1438,374)" d="m0 0h1l1 10v3l-6-4v-5h3z" fill="#1673A1"/>
<path transform="translate(543,85)" d="m0 0 3 1v3l-15 1 3-2z" fill="#163446"/>
<path transform="translate(535,1416)" d="m0 0 4 3-1 1h-15l4-2z" fill="#1986B5"/>
<path transform="translate(1305,1368)" d="m0 0 4 1-5 5h-6l5-5z" fill="#173344"/>
<path transform="translate(1442,1203)" d="m0 0h5l-2 6-4 2-1-4z" fill="#0F374C"/>
<path transform="translate(928,1077)" d="m0 0h6l-5 5h-6z" fill="#051621"/>
<path transform="translate(1096,1065)" d="m0 0 5 1-1 3-2 1h-6l2-4z" fill="#DBEEF5"/>
<path transform="translate(274,982)" d="m0 0v3l-9 10-2-1 8-10z" fill="#1272A0"/>
<path transform="translate(271,723)" d="m0 0v3l-3 3-6 11-1-4 3-4 2-5z" fill="#1782B2"/>
<path transform="translate(1509,512)" d="m0 0h2l1 10-2 2-1-3-2-1v-2h3l-2-2h-2v-3z" fill="#0B6D9D"/>
<path transform="translate(362,518)" d="m0 0h2l-2 5-9 6 2-4 5-6z" fill="#051621"/>
<path transform="translate(439,473)" d="m0 0h3l-2 5-3 3h-3l1-4z" fill="#F0FAFC"/>
<path transform="translate(405,151)" d="m0 0 2 1-2 4-6 2-3 2-3-1z" fill="#14374A"/>
<path transform="translate(955,1541)" d="m0 0h11l-1 2h-2v2h-8l2-2z" fill="#1674A1"/>
<path transform="translate(1027,1251)" d="m0 0m-2 1h2l-2 4-5 3h-3l2-4z" fill="#F4FEFF"/>
<path transform="translate(817,1205)" d="m0 0h1l2 7 1 4-4 1-1-4v-7z" fill="#192B37"/>
<path transform="translate(745,1104)" d="m0 0 9 2 2 5 3 1-2 1-12-8z" fill="#0D1F2A"/>
<path transform="translate(1511,1078)" d="m0 0 1 4-3 7-3-2 2-7z" fill="#0F6F9E"/>
<path transform="translate(878,1398)" d="m0 0h2l-1 3-11 5-2-1 8-5z" fill="#10709F"/>
<path transform="translate(417,1325)" d="m0 0 3 1-7 5-7 4-2-1 3-3z" fill="#0F70A0"/>
<path transform="translate(893,1230)" d="m0 0 2 1-14 11-2-1 5-5z" fill="#1271A0"/>
<path transform="translate(1466,1167)" d="m0 0 3 1v5l-4 2v2h-2l1-8z" fill="#0F6F9E"/>
<path transform="translate(815,1150)" d="m0 0 5 2 2 2-1 11h-1v-11l-5-2z" fill="#0B6E9E"/>
<path transform="translate(898,1129)" d="m0 0 2 1-5 5 1 2h-3l-1 2-4-3z" fill="#E6F4F8"/>
<path transform="translate(101,1074)" d="m0 0h3l2 6 1 11-2-3z" fill="#2683AB"/>
<path transform="translate(1243,179)" d="m0 0 4 2 5 4-2 3-6-5z" fill="#0C6B9A"/>
<path transform="translate(847,43)" d="m0 0 3 1-3 2h-4l-1 4-4-2 3-4z" fill="#041621"/>
<path transform="translate(1387,1281)" d="m0 0 1 3-3 3h-3l-1 6h-1l1-7 4-4z" fill="#1B2731"/>
<path transform="translate(934,1202)" d="m0 0 2 1-14 10v-3z" fill="#1372A0"/>
<path transform="translate(515,1176)" d="m0 0h3l-1 3-7 5h-2v-3z" fill="#1574A2"/>
<path transform="translate(1488,479)" d="m0 0 3 4 4 4-1 3-1-3-4 1-2-5z" fill="#1B2731"/>
<path transform="translate(1141,118)" d="m0 0 7 3-4 4-5-3z" fill="#072333"/>
<path transform="translate(1108,103)" d="m0 0 5 1 5 2-4 3-6-2z" fill="#183243"/>
<path transform="translate(1022,73)" d="m0 0h7l2 4-12-1z" fill="#04151F"/>
<path transform="translate(541,1501)" d="m0 0 2 1 1 4 3 7 2 2-4-1-3-5-2-7z" fill="#4290B0"/>
<path transform="translate(1193,1451)" d="m0 0 4 1-5 5h-3l1-5z" fill="#2980A9"/>
<path transform="translate(1513,1069)" d="m0 0h3l-2 10-3-1z" fill="#F3F8FA"/>
<path transform="translate(1055,82)" d="m0 0 7 1-1 2 3 3-6-1-4-2z" fill="#0C6D9D"/>
<path transform="translate(732,1483)" d="m0 0h7l-2 1v2l-8 1v-2l-3-1z" fill="#0E212C"/>
<path transform="translate(835,1268)" d="m0 0v3l-12 7v-3z" fill="#1372A0"/>
<path transform="translate(362,684)" d="m0 0 5 2 10 5-2 1-7-2h-2z" fill="#F4FDFE"/>
<path transform="translate(474,298)" d="m0 0 4 1-1 11-2-4z" fill="#DBEEF5"/>
<path transform="translate(978,63)" d="m0 0 14 1 3 2-4 1-4-1-6-1z" fill="#183040"/>
<path transform="translate(1030,1441)" d="m0 0h6v2l-10 3-2-2z" fill="#051621"/>
<path transform="translate(1091,1275)" d="m0 0m-2 1 2 1-7 6-5 2 1-3z" fill="#1473A1"/>
<path transform="translate(821,1127)" d="m0 0 4 1v3h2v3l-3 1-3-6z" fill="#041319"/>
<path transform="translate(70,586)" d="m0 0 3 3-3 10h-1v-10z" fill="#4592B1"/>
<path transform="translate(735,422)" d="m0 0 1 2h3v2h-2v2h-6l1-4h3z" fill="#051621"/>
<path transform="translate(649,1541)" d="m0 0 9 1 4 2h-12z" fill="#1573A0"/>
<path transform="translate(1098,1494)" d="m0 0h8l-4 2-1 3h-5z" fill="#183141"/>
<path transform="translate(1290,1381)" d="m0 0 2 1-1 4-7 2 3-5z" fill="#1D78A4"/>
<path transform="translate(935,1369)" d="m0 0h2l-2 4-9 3v-2z" fill="#1171A0"/>
<path transform="translate(719,868)" d="m0 0 3 1-2 4-4 1-1-2z" fill="#041319"/>
<path transform="translate(235,815)" d="m0 0v3l-4 4-3 1 1-5z" fill="#1B2731"/>
<path transform="translate(292,688)" d="m0 0 1 2-7 12-1-2 2-5z" fill="#1178A8"/>
<path transform="translate(343,683)" d="m0 0h6l1 4-2 3z" fill="#051621"/>
<path transform="translate(1525,562)" d="m0 0 4 4 1 5-3 1-2-5z" fill="#1573A0"/>
<path transform="translate(1489,477)" d="m0 0 3 3 2-1v7l-3-1-2-3z" fill="#0A6C9D"/>
<path transform="translate(139,429)" d="m0 0 1 2-3 13h-1v-10z" fill="#1A3342"/>
<path transform="translate(303,227)" d="m0 0 3 2-3 1zm-3 1 1 2h2l-1 3-7 1z" fill="#247CA6"/>
<path transform="translate(1206,154)" d="m0 0 8 4 1 7-2-2-1-4-5-2z" fill="#173445"/>
<path transform="translate(948,53)" d="m0 0 9 2v1h-5l-3 2h-3z" fill="#0D2E41"/>
</svg>
